<svg width="28" height="15" viewBox="0 0 28 15" fill="none" xmlns="http://www.w3.org/2000/svg">
<path opacity="0.99" fill-rule="evenodd" clip-rule="evenodd" d="M26.24 12.2219L27 14.4999H25L24.333 12.4999H18C16.343 12.4999 15 11.1609 15 9.49988V3.49988C15 1.84088 16.348 0.499878 18 0.499878H25C26.657 0.499878 28 1.83888 28 3.49988V9.49988C28 10.8899 27.179 11.7979 26.24 12.2219ZM2 0.499878H0V12.4999H2V7.49988H11V12.4999H13V0.499878H11V5.49988H2V0.499878ZM17 9.49988C17 10.0559 17.447 10.4999 18 10.4999H25C25.5 10.4999 26 10.0519 26 9.49988V3.49988C26 2.94388 25.553 2.49988 25 2.49988H18C17.45 2.49988 17 2.94788 17 3.49988V9.49988Z" fill="#8E8E8E"/>
</svg>
