<svg width="24" height="15" viewBox="0 0 24 15" fill="none" xmlns="http://www.w3.org/2000/svg">
<path d="M1.33333 8.83325C2.06667 8.83325 2.66667 8.23325 2.66667 7.49992C2.66667 6.76658 2.06667 6.16658 1.33333 6.16658C0.6 6.16658 0 6.76658 0 7.49992C0 8.23325 0.6 8.83325 1.33333 8.83325ZM1.33333 14.1666C2.06667 14.1666 2.66667 13.5666 2.66667 12.8333C2.66667 12.0999 2.06667 11.4999 1.33333 11.4999C0.6 11.4999 0 12.0999 0 12.8333C0 13.5666 0.6 14.1666 1.33333 14.1666ZM1.33333 3.49992C2.06667 3.49992 2.66667 2.89992 2.66667 2.16659C2.66667 1.43325 2.06667 0.833252 1.33333 0.833252C0.6 0.833252 0 1.43325 0 2.16659C0 2.89992 0.6 3.49992 1.33333 3.49992ZM6.66667 8.83325H22.6667C23.4 8.83325 24 8.23325 24 7.49992C24 6.76658 23.4 6.16658 22.6667 6.16658H6.66667C5.93333 6.16658 5.33333 6.76658 5.33333 7.49992C5.33333 8.23325 5.93333 8.83325 6.66667 8.83325ZM6.66667 14.1666H22.6667C23.4 14.1666 24 13.5666 24 12.8333C24 12.0999 23.4 11.4999 22.6667 11.4999H6.66667C5.93333 11.4999 5.33333 12.0999 5.33333 12.8333C5.33333 13.5666 5.93333 14.1666 6.66667 14.1666ZM5.33333 2.16659C5.33333 2.89992 5.93333 3.49992 6.66667 3.49992H22.6667C23.4 3.49992 24 2.89992 24 2.16659C24 1.43325 23.4 0.833252 22.6667 0.833252H6.66667C5.93333 0.833252 5.33333 1.43325 5.33333 2.16659ZM1.33333 8.83325C2.06667 8.83325 2.66667 8.23325 2.66667 7.49992C2.66667 6.76658 2.06667 6.16658 1.33333 6.16658C0.6 6.16658 0 6.76658 0 7.49992C0 8.23325 0.6 8.83325 1.33333 8.83325ZM1.33333 14.1666C2.06667 14.1666 2.66667 13.5666 2.66667 12.8333C2.66667 12.0999 2.06667 11.4999 1.33333 11.4999C0.6 11.4999 0 12.0999 0 12.8333C0 13.5666 0.6 14.1666 1.33333 14.1666ZM1.33333 3.49992C2.06667 3.49992 2.66667 2.89992 2.66667 2.16659C2.66667 1.43325 2.06667 0.833252 1.33333 0.833252C0.6 0.833252 0 1.43325 0 2.16659C0 2.89992 0.6 3.49992 1.33333 3.49992ZM6.66667 8.83325H22.6667C23.4 8.83325 24 8.23325 24 7.49992C24 6.76658 23.4 6.16658 22.6667 6.16658H6.66667C5.93333 6.16658 5.33333 6.76658 5.33333 7.49992C5.33333 8.23325 5.93333 8.83325 6.66667 8.83325ZM6.66667 14.1666H22.6667C23.4 14.1666 24 13.5666 24 12.8333C24 12.0999 23.4 11.4999 22.6667 11.4999H6.66667C5.93333 11.4999 5.33333 12.0999 5.33333 12.8333C5.33333 13.5666 5.93333 14.1666 6.66667 14.1666ZM5.33333 2.16659C5.33333 2.89992 5.93333 3.49992 6.66667 3.49992H22.6667C23.4 3.49992 24 2.89992 24 2.16659C24 1.43325 23.4 0.833252 22.6667 0.833252H6.66667C5.93333 0.833252 5.33333 1.43325 5.33333 2.16659Z" fill="#BFBDC4"/>
</svg>
