<svg width="16" height="17" viewBox="0 0 16 17" fill="none" xmlns="http://www.w3.org/2000/svg">
<path d="M6.5907 5.66988L2.1207 1.19988C1.7307 0.809878 1.1007 0.809878 0.710703 1.19988C0.320703 1.58988 0.320703 2.21988 0.710703 2.60988L5.1707 7.06988L6.5907 5.66988ZM11.3507 1.34988L12.5407 2.53988L0.700703 14.3799C0.310703 14.7699 0.310703 15.3999 0.700703 15.7899C1.0907 16.1799 1.7207 16.1799 2.1107 15.7899L13.9607 3.95988L15.1507 5.14988C15.4607 5.45988 16.0007 5.23988 16.0007 4.78988V0.999878C16.0007 0.719878 15.7807 0.499878 15.5007 0.499878H11.7107C11.2607 0.499878 11.0407 1.03988 11.3507 1.34988ZM10.8307 9.90988L9.4207 11.3199L12.5507 14.4499L11.3507 15.6499C11.0407 15.9599 11.2607 16.4999 11.7107 16.4999H15.5007C15.7807 16.4999 16.0007 16.2799 16.0007 15.9999V12.2099C16.0007 11.7599 15.4607 11.5399 15.1507 11.8599L13.9607 13.0499L10.8307 9.90988Z" fill="#8E8E8E"/>
</svg>
