<svg width="18" height="19" viewBox="0 0 18 19" fill="none" xmlns="http://www.w3.org/2000/svg">
<path d="M4.00094 4.49982H14.0009V6.28982C14.0009 6.73982 14.5409 6.95982 14.8509 6.63982L17.6409 3.84982C17.8409 3.64982 17.8409 3.33982 17.6409 3.13982L14.8509 0.349819C14.5409 0.0398186 14.0009 0.259819 14.0009 0.709819V2.49982H3.00094C2.45094 2.49982 2.00094 2.94982 2.00094 3.49982V7.49982C2.00094 8.04982 2.45094 8.49982 3.00094 8.49982C3.55094 8.49982 4.00094 8.04982 4.00094 7.49982V4.49982ZM14.0009 14.4998H4.00094V12.7098C4.00094 12.2598 3.46094 12.0398 3.15094 12.3598L0.360938 15.1498C0.160938 15.3498 0.160938 15.6598 0.360938 15.8598L3.15094 18.6498C3.46094 18.9598 4.00094 18.7398 4.00094 18.2898V16.4998H15.0009C15.5509 16.4998 16.0009 16.0498 16.0009 15.4998V11.4998C16.0009 10.9498 15.5509 10.4998 15.0009 10.4998C14.4509 10.4998 14.0009 10.9498 14.0009 11.4998V14.4998Z" fill="#8E8E8E"/>
</svg>
