<svg width="18" height="17" viewBox="0 0 18 17" fill="none" xmlns="http://www.w3.org/2000/svg">
<path d="M0 6.49984V10.4998C0 11.0498 0.45 11.4998 1 11.4998H4L7.29 14.7898C7.92 15.4198 9 14.9698 9 14.0798V2.90984C9 2.01984 7.92 1.56984 7.29 2.19984L4 5.49984H1C0.45 5.49984 0 5.94984 0 6.49984ZM13.5 8.49984C13.5 6.72984 12.48 5.20984 11 4.46984V12.5198C12.48 11.7898 13.5 10.2698 13.5 8.49984ZM11 0.949841V1.14984C11 1.52984 11.25 1.85984 11.6 1.99984C14.18 3.02984 16 5.55984 16 8.49984C16 11.4398 14.18 13.9698 11.6 14.9998C11.24 15.1398 11 15.4698 11 15.8498V16.0498C11 16.6798 11.63 17.1198 12.21 16.8998C15.6 15.6098 18 12.3398 18 8.49984C18 4.65984 15.6 1.38984 12.21 0.0998409C11.63 -0.130159 11 0.319841 11 0.949841Z" fill="#8E8E8E"/>
</svg>
