<svg width="190" height="55" viewBox="0 0 190 55" fill="none" xmlns="http://www.w3.org/2000/svg">
<rect width="190" height="54.4" rx="4" fill="#111111"/>
<g clip-path="url(#clip0)">
<path d="M26.6178 39.4015C25.908 38.9818 25.279 38.4631 24.7548 37.8655C24.1782 37.2487 23.644 36.6015 23.1551 35.9275C22.0077 34.4333 21.1078 32.8003 20.4832 31.0785C19.7328 29.0785 19.3694 27.1615 19.3694 25.2865C19.3694 23.1925 19.8791 21.3645 20.8758 19.8285C21.6147 18.628 22.701 17.6247 24.0224 16.9225C25.303 16.2155 26.7745 15.8286 28.2817 15.8025C28.8093 15.8025 29.3774 15.8705 29.9804 16.0005C30.4136 16.1095 30.9412 16.2815 31.5858 16.4955C32.4059 16.7765 32.8571 16.9485 33.0101 16.9905C33.4904 17.1465 33.8943 17.2145 34.2116 17.2145C34.4523 17.2145 34.7921 17.1465 35.1779 17.0425C35.3951 16.9745 35.8046 16.8545 36.3907 16.6315C36.9712 16.4435 37.4279 16.2825 37.7913 16.1625C38.3482 16.0165 38.8871 15.8815 39.3674 15.8135C39.9369 15.7337 40.5149 15.7126 41.0898 15.7505C42.0861 15.8084 43.0675 15.9961 44.0024 16.3075C45.5313 16.8545 46.7677 17.7085 47.6879 18.9225C47.299 19.1356 46.9339 19.3814 46.5978 19.6565C45.8661 20.2331 45.2429 20.91 44.7517 21.6615C44.1097 22.6886 43.7768 23.8456 43.7853 25.0205C43.8089 26.4635 44.2252 27.7345 45.0453 28.8335C45.6483 29.648 46.4319 30.3446 47.3482 30.8805C47.8173 31.1615 48.2212 31.3545 48.6082 31.4845C48.4271 31.9845 48.2336 32.4685 48.0052 32.9485C47.4872 34.0249 46.8595 35.0569 46.1298 36.0315C45.4796 36.8705 44.9699 37.4955 44.5829 37.9115C43.9799 38.5465 43.3994 39.0315 42.8133 39.3695C42.1687 39.7495 41.4071 39.9525 40.6331 39.9525C40.1089 39.9704 39.5848 39.914 39.0806 39.7855C38.6474 39.6555 38.2188 39.5145 37.7969 39.3535C37.3584 39.1744 36.9061 39.0231 36.4436 38.9005C35.3002 38.6395 34.1015 38.6378 32.9572 38.8955C32.4881 39.0155 32.0369 39.1555 31.5914 39.3275C30.9648 39.5615 30.5486 39.7185 30.3078 39.7855C29.8274 39.9105 29.3291 39.9885 28.8251 40.0145C28.0454 40.0145 27.3187 39.8165 26.5987 39.4155L26.6178 39.4015ZM36.9003 14.7865C35.8811 15.2395 34.9079 15.4325 33.9416 15.3695C33.7897 14.5045 33.9416 13.6195 34.3454 12.6505C34.6893 11.8296 35.1973 11.0707 35.8451 10.4105C36.5291 9.71553 37.3591 9.14589 38.2886 8.73351C39.2786 8.28051 40.2224 8.03551 41.1247 7.99951C41.2417 8.90551 41.1247 9.79651 40.7501 10.7595C40.4034 11.6108 39.8963 12.4034 39.2504 13.1035C38.5913 13.7994 37.7823 14.3713 36.8711 14.7855L36.9003 14.7865Z" fill="white"/>
</g>
<path d="M67.36 19.144C66.688 19.144 66.084 19.02 65.548 18.772C65.012 18.524 64.612 18.208 64.348 17.824L64.936 17.188C65.176 17.508 65.512 17.768 65.944 17.968C66.384 18.16 66.848 18.256 67.336 18.256C67.96 18.256 68.452 18.124 68.812 17.86C69.172 17.588 69.352 17.22 69.352 16.756C69.352 16.276 69.164 15.92 68.788 15.688C68.42 15.456 67.916 15.34 67.276 15.34H65.644V14.452H67.276C67.844 14.452 68.308 14.344 68.668 14.128C69.036 13.904 69.22 13.572 69.22 13.132C69.22 12.7 69.036 12.364 68.668 12.124C68.308 11.884 67.852 11.764 67.3 11.764C66.396 11.764 65.64 12.088 65.032 12.736L64.48 12.112C64.8 11.744 65.208 11.448 65.704 11.224C66.208 10.992 66.764 10.876 67.372 10.876C68.188 10.876 68.868 11.068 69.412 11.452C69.964 11.836 70.24 12.356 70.24 13.012C70.24 13.54 70.06 13.964 69.7 14.284C69.348 14.596 68.952 14.792 68.512 14.872C68.952 14.912 69.368 15.104 69.76 15.448C70.16 15.792 70.36 16.256 70.36 16.84C70.36 17.512 70.084 18.064 69.532 18.496C68.98 18.928 68.256 19.144 67.36 19.144ZM76.8318 19H75.9318V18.34C75.4438 18.876 74.8038 19.144 74.0118 19.144C73.4758 19.144 73.0038 18.972 72.5958 18.628C72.1878 18.284 71.9838 17.816 71.9838 17.224C71.9838 16.616 72.1838 16.148 72.5838 15.82C72.9918 15.484 73.4678 15.316 74.0118 15.316C74.8358 15.316 75.4758 15.58 75.9318 16.108V15.064C75.9318 14.68 75.7958 14.38 75.5238 14.164C75.2518 13.948 74.8998 13.84 74.4678 13.84C73.7878 13.84 73.1958 14.108 72.6918 14.644L72.2718 14.02C72.8878 13.38 73.6598 13.06 74.5878 13.06C75.2518 13.06 75.7918 13.22 76.2078 13.54C76.6238 13.86 76.8318 14.352 76.8318 15.016V19ZM74.3358 18.496C75.0558 18.496 75.5878 18.256 75.9318 17.776V16.684C75.5878 16.204 75.0558 15.964 74.3358 15.964C73.9198 15.964 73.5758 16.084 73.3038 16.324C73.0398 16.556 72.9078 16.86 72.9078 17.236C72.9078 17.604 73.0398 17.908 73.3038 18.148C73.5758 18.38 73.9198 18.496 74.3358 18.496ZM83.0919 13.204V13.996H79.9359V19H79.0359V13.204H83.0919ZM87.5185 19.144C86.7025 19.144 86.0505 18.804 85.5625 18.124V21.208H84.6625V13.204H85.5625V14.068C85.7785 13.764 86.0585 13.52 86.4025 13.336C86.7465 13.152 87.1185 13.06 87.5185 13.06C88.2865 13.06 88.9065 13.336 89.3785 13.888C89.8585 14.432 90.0985 15.168 90.0985 16.096C90.0985 17.024 89.8585 17.764 89.3785 18.316C88.9065 18.868 88.2865 19.144 87.5185 19.144ZM87.2905 18.34C87.8585 18.34 88.3105 18.132 88.6465 17.716C88.9825 17.292 89.1505 16.752 89.1505 16.096C89.1505 15.44 88.9825 14.904 88.6465 14.488C88.3105 14.072 87.8585 13.864 87.2905 13.864C86.9465 13.864 86.6105 13.956 86.2825 14.14C85.9625 14.316 85.7225 14.532 85.5625 14.788V17.404C85.7225 17.668 85.9625 17.892 86.2825 18.076C86.6105 18.252 86.9465 18.34 87.2905 18.34ZM91.6057 21.268L91.7497 20.452C91.8937 20.516 92.0577 20.548 92.2417 20.548C92.4497 20.548 92.6217 20.504 92.7577 20.416C92.8937 20.328 93.0097 20.168 93.1057 19.936L93.4897 19.06L91.0657 13.204H92.0377L93.9697 17.956L95.8897 13.204H96.8737L93.9697 20.176C93.6497 20.944 93.0817 21.336 92.2657 21.352C92.0257 21.352 91.8057 21.324 91.6057 21.268ZM100.265 19.144C99.1525 19.144 98.2805 18.828 97.6485 18.196L98.0925 17.62C98.6365 18.14 99.3605 18.4 100.265 18.4C100.785 18.4 101.197 18.308 101.501 18.124C101.813 17.94 101.969 17.696 101.969 17.392C101.969 16.752 101.361 16.432 100.145 16.432H98.8485V15.7H100.145C100.649 15.7 101.061 15.62 101.381 15.46C101.701 15.292 101.861 15.048 101.861 14.728C101.861 14.456 101.701 14.236 101.381 14.068C101.061 13.892 100.657 13.804 100.169 13.804C99.3605 13.804 98.7125 14.052 98.2245 14.548L97.7565 13.996C98.3565 13.38 99.1485 13.072 100.133 13.072C100.925 13.064 101.565 13.2 102.053 13.48C102.549 13.752 102.797 14.132 102.797 14.62C102.797 15.02 102.633 15.344 102.305 15.592C101.985 15.84 101.629 15.988 101.237 16.036C101.645 16.068 102.025 16.204 102.377 16.444C102.737 16.684 102.917 17.02 102.917 17.452C102.917 17.948 102.677 18.356 102.197 18.676C101.725 18.988 101.081 19.144 100.265 19.144ZM105.641 19H104.777V13.204H105.677V17.632L108.713 13.204H109.601V19H108.701V14.488L105.641 19ZM113.754 19H112.854V13.996H111.174V13.204H115.446V13.996H113.754V19ZM119.642 19.144C118.778 19.144 118.07 18.864 117.518 18.304C116.966 17.736 116.69 17 116.69 16.096C116.69 15.248 116.962 14.532 117.506 13.948C118.05 13.356 118.73 13.06 119.546 13.06C120.402 13.06 121.078 13.356 121.574 13.948C122.078 14.532 122.33 15.272 122.33 16.168V16.396H117.638C117.678 16.964 117.886 17.44 118.262 17.824C118.638 18.208 119.126 18.4 119.726 18.4C120.446 18.4 121.042 18.156 121.514 17.668L121.946 18.256C121.354 18.848 120.586 19.144 119.642 19.144ZM121.442 15.736C121.434 15.24 121.266 14.796 120.938 14.404C120.61 14.004 120.142 13.804 119.534 13.804C118.958 13.804 118.502 14 118.166 14.392C117.838 14.784 117.662 15.232 117.638 15.736H121.442ZM130.933 19H127.681V13.204H130.873C131.377 13.204 131.773 13.34 132.061 13.612C132.357 13.884 132.505 14.244 132.505 14.692C132.505 15.02 132.413 15.304 132.229 15.544C132.053 15.776 131.833 15.932 131.569 16.012C131.865 16.084 132.113 16.256 132.313 16.528C132.521 16.8 132.625 17.1 132.625 17.428C132.625 17.9 132.473 18.28 132.169 18.568C131.873 18.856 131.461 19 130.933 19ZM130.753 18.208C131.041 18.208 131.269 18.128 131.437 17.968C131.605 17.808 131.689 17.592 131.689 17.32C131.689 17.072 131.605 16.86 131.437 16.684C131.269 16.508 131.041 16.42 130.753 16.42H128.581V18.208H130.753ZM130.717 15.628C130.989 15.628 131.201 15.556 131.353 15.412C131.505 15.26 131.581 15.064 131.581 14.824C131.581 14.568 131.505 14.368 131.353 14.224C131.201 14.072 130.989 13.996 130.717 13.996H128.581V15.628H130.717Z" fill="#BDBDBD"/>
<path d="M69.7 27.1999H71.82L77.34 41.3999H74.98L73.48 37.5399H68L66.52 41.3999H64.14L69.7 27.1999ZM73.04 35.8799L70.76 29.6599L68.4 35.8799H73.04ZM84.9061 41.5999C84.0661 41.5999 83.3261 41.3999 82.6861 40.9999C82.0461 40.5999 81.5394 40.0799 81.1661 39.4399V45.6599H78.9661V30.9399H80.9061V32.8199C81.3061 32.1932 81.8261 31.6932 82.4661 31.3199C83.1061 30.9466 83.8194 30.7599 84.6061 30.7599C85.5661 30.7599 86.4128 31.0132 87.1461 31.5199C87.8928 32.0132 88.4794 32.6732 88.9061 33.4999C89.3328 34.3132 89.5461 35.1999 89.5461 36.1599C89.5461 37.1732 89.3461 38.0932 88.9461 38.9199C88.5461 39.7332 87.9994 40.3866 87.3061 40.8799C86.6128 41.3599 85.8128 41.5999 84.9061 41.5999ZM84.1861 39.7199C84.8128 39.7199 85.3528 39.5532 85.8061 39.2199C86.2728 38.8732 86.6328 38.4332 86.8861 37.8999C87.1528 37.3532 87.2861 36.7732 87.2861 36.1599C87.2861 35.5199 87.1394 34.9332 86.8461 34.3999C86.5661 33.8666 86.1794 33.4399 85.6861 33.1199C85.2061 32.7999 84.6528 32.6399 84.0261 32.6399C83.6528 32.6399 83.2594 32.7332 82.8461 32.9199C82.4461 33.1066 82.0928 33.3532 81.7861 33.6599C81.4794 33.9666 81.2728 34.3132 81.1661 34.6999V37.4399C81.4328 38.0799 81.8394 38.6199 82.3861 39.0599C82.9461 39.4999 83.5461 39.7199 84.1861 39.7199ZM97.6147 41.5999C96.7747 41.5999 96.0347 41.3999 95.3947 40.9999C94.7547 40.5999 94.248 40.0799 93.8747 39.4399V45.6599H91.6747V30.9399H93.6147V32.8199C94.0147 32.1932 94.5347 31.6932 95.1747 31.3199C95.8147 30.9466 96.528 30.7599 97.3147 30.7599C98.2747 30.7599 99.1214 31.0132 99.8547 31.5199C100.601 32.0132 101.188 32.6732 101.615 33.4999C102.041 34.3132 102.255 35.1999 102.255 36.1599C102.255 37.1732 102.055 38.0932 101.655 38.9199C101.255 39.7332 100.708 40.3866 100.015 40.8799C99.3214 41.3599 98.5214 41.5999 97.6147 41.5999ZM96.8947 39.7199C97.5214 39.7199 98.0614 39.5532 98.5147 39.2199C98.9814 38.8732 99.3414 38.4332 99.5947 37.8999C99.8614 37.3532 99.9947 36.7732 99.9947 36.1599C99.9947 35.5199 99.848 34.9332 99.5547 34.3999C99.2747 33.8666 98.888 33.4399 98.3947 33.1199C97.9147 32.7999 97.3614 32.6399 96.7347 32.6399C96.3614 32.6399 95.968 32.7332 95.5547 32.9199C95.1547 33.1066 94.8014 33.3532 94.4947 33.6599C94.188 33.9666 93.9814 34.3132 93.8747 34.6999V37.4399C94.1414 38.0799 94.548 38.6199 95.0947 39.0599C95.6547 39.4999 96.2547 39.7199 96.8947 39.7199ZM118.155 30.5399C117.981 30.3399 117.695 30.1332 117.295 29.9199C116.908 29.6932 116.455 29.4999 115.935 29.3399C115.415 29.1799 114.875 29.0999 114.315 29.0999C113.368 29.0999 112.668 29.2732 112.215 29.6199C111.775 29.9666 111.555 30.4466 111.555 31.0599C111.555 31.5132 111.681 31.8732 111.935 32.1399C112.188 32.3932 112.575 32.6132 113.095 32.7999C113.615 32.9732 114.268 33.1532 115.055 33.3399C116.015 33.5666 116.841 33.8399 117.535 34.1599C118.241 34.4666 118.781 34.8799 119.155 35.3999C119.541 35.9199 119.735 36.6066 119.735 37.4599C119.735 38.4332 119.501 39.2199 119.035 39.8199C118.568 40.4199 117.935 40.8599 117.135 41.1399C116.348 41.4066 115.481 41.5399 114.535 41.5399C113.455 41.5399 112.408 41.3732 111.395 41.0399C110.381 40.7066 109.475 40.2332 108.675 39.6199L109.695 37.6999C109.921 37.9266 110.281 38.1866 110.775 38.4799C111.268 38.7599 111.841 39.0066 112.495 39.2199C113.161 39.4199 113.855 39.5199 114.575 39.5199C115.455 39.5199 116.135 39.3666 116.615 39.0599C117.095 38.7399 117.335 38.2866 117.335 37.6999C117.335 37.2199 117.175 36.8399 116.855 36.5599C116.548 36.2666 116.101 36.0266 115.515 35.8399C114.941 35.6399 114.248 35.4332 113.435 35.2199C112.501 34.9799 111.721 34.7066 111.095 34.3999C110.468 34.0932 109.995 33.7066 109.675 33.2399C109.368 32.7732 109.215 32.1666 109.215 31.4199C109.215 30.4866 109.441 29.6999 109.895 29.0599C110.348 28.4066 110.961 27.9199 111.735 27.5999C112.521 27.2666 113.401 27.0999 114.375 27.0999C115.335 27.0999 116.221 27.2532 117.035 27.5599C117.848 27.8666 118.561 28.2466 119.175 28.6999L118.155 30.5399ZM127.456 40.8599C127.176 40.9932 126.79 41.1466 126.296 41.3199C125.803 41.4799 125.276 41.5599 124.716 41.5599C124.023 41.5599 123.423 41.3732 122.916 40.9999C122.423 40.6266 122.176 40.0199 122.176 39.1799V32.6399H120.796V30.9399H122.176V27.4999H124.376V30.9399H126.656V32.6399H124.376V38.4799C124.403 38.8532 124.516 39.1266 124.716 39.2999C124.93 39.4599 125.19 39.5399 125.496 39.5399C125.803 39.5399 126.096 39.4866 126.376 39.3799C126.656 39.2732 126.863 39.1866 126.996 39.1199L127.456 40.8599ZM133.693 41.5999C132.6 41.5999 131.647 41.3532 130.833 40.8599C130.033 40.3532 129.413 39.6932 128.973 38.8799C128.533 38.0532 128.313 37.1532 128.313 36.1799C128.313 35.2066 128.533 34.3132 128.973 33.4999C129.427 32.6732 130.053 32.0132 130.853 31.5199C131.667 31.0132 132.613 30.7599 133.693 30.7599C134.773 30.7599 135.713 31.0132 136.513 31.5199C137.327 32.0132 137.953 32.6732 138.393 33.4999C138.847 34.3132 139.073 35.2066 139.073 36.1799C139.073 37.1532 138.853 38.0532 138.413 38.8799C137.973 39.6932 137.347 40.3532 136.533 40.8599C135.733 41.3532 134.787 41.5999 133.693 41.5999ZM130.573 36.1999C130.573 36.8666 130.713 37.4666 130.993 37.9999C131.273 38.5332 131.647 38.9532 132.113 39.2599C132.58 39.5666 133.107 39.7199 133.693 39.7199C134.267 39.7199 134.787 39.5666 135.253 39.2599C135.733 38.9399 136.113 38.5132 136.393 37.9799C136.673 37.4466 136.813 36.8466 136.813 36.1799C136.813 35.5132 136.673 34.9132 136.393 34.3799C136.113 33.8466 135.733 33.4266 135.253 33.1199C134.787 32.7999 134.267 32.6399 133.693 32.6399C133.12 32.6399 132.593 32.7999 132.113 33.1199C131.647 33.4266 131.273 33.8532 130.993 34.3999C130.713 34.9332 130.573 35.5332 130.573 36.1999ZM147.055 32.8399C146.201 32.8666 145.441 33.0666 144.775 33.4399C144.121 33.7999 143.655 34.3199 143.375 34.9999V41.3999H141.175V30.9399H143.215V33.2799C143.575 32.5599 144.048 31.9866 144.635 31.5599C145.221 31.1199 145.841 30.8799 146.495 30.8399C146.615 30.8399 146.721 30.8399 146.815 30.8399C146.908 30.8399 146.988 30.8466 147.055 30.8599V32.8399ZM153.369 41.5999C152.289 41.5999 151.343 41.3532 150.529 40.8599C149.716 40.3666 149.083 39.7132 148.629 38.8999C148.176 38.0732 147.949 37.1732 147.949 36.1999C147.949 35.2132 148.176 34.3066 148.629 33.4799C149.083 32.6532 149.716 31.9932 150.529 31.4999C151.343 31.0066 152.296 30.7599 153.389 30.7599C154.483 30.7599 155.429 31.0132 156.229 31.5199C157.029 32.0132 157.643 32.6666 158.069 33.4799C158.509 34.2932 158.729 35.1666 158.729 36.0999C158.729 36.4332 158.709 36.6999 158.669 36.8999H150.289C150.329 37.5132 150.496 38.0532 150.789 38.5199C151.096 38.9732 151.476 39.3332 151.929 39.5999C152.396 39.8532 152.903 39.9799 153.449 39.9799C154.036 39.9799 154.589 39.8332 155.109 39.5399C155.629 39.2466 155.989 38.8599 156.189 38.3799L158.069 38.9199C157.709 39.7066 157.109 40.3532 156.269 40.8599C155.443 41.3532 154.476 41.5999 153.369 41.5999ZM150.229 35.4399H156.549C156.496 34.8399 156.323 34.3132 156.029 33.8599C155.736 33.3932 155.356 33.0332 154.889 32.7799C154.436 32.5132 153.929 32.3799 153.369 32.3799C152.823 32.3799 152.316 32.5132 151.849 32.7799C151.396 33.0332 151.023 33.3932 150.729 33.8599C150.436 34.3132 150.269 34.8399 150.229 35.4399Z" fill="white"/>
<defs>
<clipPath id="clip0">
<rect width="36" height="32" fill="white" transform="translate(16 8)"/>
</clipPath>
</defs>
</svg>
