<svg width="190" height="54" viewBox="0 0 190 54" fill="none" xmlns="http://www.w3.org/2000/svg">
<rect width="190" height="54" rx="4" fill="#111111"/>
<g clip-path="url(#clip0_38:53494)">
<path d="M26.6178 39.4015C25.908 38.9818 25.279 38.4631 24.7548 37.8655C24.1782 37.2487 23.644 36.6015 23.1551 35.9275C22.0077 34.4333 21.1078 32.8003 20.4832 31.0785C19.7328 29.0785 19.3694 27.1615 19.3694 25.2865C19.3694 23.1925 19.8791 21.3645 20.8758 19.8285C21.6147 18.628 22.701 17.6247 24.0224 16.9225C25.303 16.2155 26.7745 15.8286 28.2817 15.8025C28.8093 15.8025 29.3774 15.8705 29.9804 16.0005C30.4136 16.1095 30.9412 16.2815 31.5858 16.4955C32.4059 16.7765 32.8571 16.9485 33.0101 16.9905C33.4904 17.1465 33.8943 17.2145 34.2116 17.2145C34.4523 17.2145 34.7921 17.1465 35.1779 17.0425C35.3951 16.9745 35.8046 16.8545 36.3907 16.6315C36.9712 16.4435 37.4279 16.2825 37.7913 16.1625C38.3482 16.0165 38.8871 15.8815 39.3674 15.8135C39.9369 15.7337 40.5149 15.7126 41.0898 15.7505C42.0861 15.8084 43.0675 15.9961 44.0024 16.3075C45.5313 16.8545 46.7677 17.7085 47.6879 18.9225C47.299 19.1356 46.9339 19.3814 46.5978 19.6565C45.8661 20.2331 45.2429 20.91 44.7517 21.6615C44.1097 22.6886 43.7768 23.8456 43.7853 25.0205C43.8089 26.4635 44.2252 27.7345 45.0453 28.8335C45.6483 29.648 46.4319 30.3446 47.3482 30.8805C47.8173 31.1615 48.2212 31.3545 48.6082 31.4845C48.4271 31.9845 48.2336 32.4685 48.0052 32.9485C47.4872 34.0249 46.8595 35.0569 46.1298 36.0315C45.4796 36.8705 44.9699 37.4955 44.5829 37.9115C43.9799 38.5465 43.3994 39.0315 42.8133 39.3695C42.1687 39.7495 41.4071 39.9525 40.6331 39.9525C40.1089 39.9704 39.5848 39.914 39.0806 39.7855C38.6474 39.6555 38.2188 39.5145 37.7969 39.3535C37.3584 39.1744 36.9061 39.0231 36.4436 38.9005C35.3002 38.6395 34.1015 38.6378 32.9572 38.8955C32.4881 39.0155 32.0369 39.1555 31.5914 39.3275C30.9648 39.5615 30.5486 39.7185 30.3078 39.7855C29.8274 39.9105 29.3291 39.9885 28.8251 40.0145C28.0454 40.0145 27.3187 39.8165 26.5987 39.4155L26.6178 39.4015ZM36.9003 14.7865C35.8811 15.2395 34.9079 15.4325 33.9416 15.3695C33.7897 14.5045 33.9416 13.6195 34.3454 12.6505C34.6893 11.8296 35.1973 11.0707 35.8451 10.4105C36.5291 9.71553 37.3591 9.14589 38.2886 8.73351C39.2786 8.28051 40.2224 8.03551 41.1247 7.99951C41.2417 8.90551 41.1247 9.79651 40.7501 10.7595C40.4034 11.6108 39.8963 12.4034 39.2504 13.1035C38.5913 13.7994 37.7823 14.3713 36.8711 14.7855L36.9003 14.7865Z" fill="white"/>
</g>
<path d="M68.836 11.26C67.916 11.26 67.192 11.568 66.664 12.184C66.136 12.8 65.872 13.644 65.872 14.716C65.872 15.78 66.116 16.624 66.604 17.248C67.1 17.864 67.84 18.172 68.824 18.172C69.2 18.172 69.556 18.14 69.892 18.076C70.228 18.012 70.556 17.932 70.876 17.836V18.772C70.556 18.892 70.224 18.98 69.88 19.036C69.544 19.092 69.14 19.12 68.668 19.12C67.796 19.12 67.068 18.94 66.484 18.58C65.9 18.22 65.46 17.708 65.164 17.044C64.876 16.38 64.732 15.6 64.732 14.704C64.732 13.84 64.888 13.08 65.2 12.424C65.52 11.76 65.988 11.244 66.604 10.876C67.22 10.5 67.968 10.312 68.848 10.312C69.752 10.312 70.54 10.48 71.212 10.816L70.78 11.728C70.516 11.608 70.22 11.5 69.892 11.404C69.572 11.308 69.22 11.26 68.836 11.26ZM76.806 12.568H77.958L75.21 15.664L78.186 19H76.962L74.058 15.736V19H73.002V12.568H74.058V15.688L76.806 12.568ZM85.1112 15.772C85.1112 16.836 84.8392 17.66 84.2952 18.244C83.7592 18.828 83.0312 19.12 82.1112 19.12C81.5432 19.12 81.0352 18.992 80.5872 18.736C80.1472 18.472 79.7992 18.092 79.5432 17.596C79.2872 17.092 79.1592 16.484 79.1592 15.772C79.1592 14.708 79.4272 13.888 79.9632 13.312C80.4992 12.736 81.2272 12.448 82.1472 12.448C82.7312 12.448 83.2432 12.58 83.6832 12.844C84.1312 13.1 84.4792 13.476 84.7272 13.972C84.9832 14.46 85.1112 15.06 85.1112 15.772ZM80.2512 15.772C80.2512 16.532 80.3992 17.136 80.6952 17.584C80.9992 18.024 81.4792 18.244 82.1352 18.244C82.7832 18.244 83.2592 18.024 83.5632 17.584C83.8672 17.136 84.0192 16.532 84.0192 15.772C84.0192 15.012 83.8672 14.416 83.5632 13.984C83.2592 13.552 82.7792 13.336 82.1232 13.336C81.4672 13.336 80.9912 13.552 80.6952 13.984C80.3992 14.416 80.2512 15.012 80.2512 15.772ZM90.2448 12.448C91.0368 12.448 91.6728 12.724 92.1528 13.276C92.6408 13.828 92.8848 14.66 92.8848 15.772C92.8848 16.868 92.6408 17.7 92.1528 18.268C91.6728 18.836 91.0328 19.12 90.2328 19.12C89.7368 19.12 89.3248 19.028 88.9968 18.844C88.6768 18.652 88.4248 18.432 88.2408 18.184H88.1688C88.1848 18.32 88.2008 18.492 88.2168 18.7C88.2328 18.908 88.2408 19.088 88.2408 19.24V21.88H87.1848V12.568H88.0488L88.1928 13.444H88.2408C88.4328 13.164 88.6848 12.928 88.9968 12.736C89.3088 12.544 89.7248 12.448 90.2448 12.448ZM90.0528 13.336C89.3968 13.336 88.9328 13.52 88.6608 13.888C88.3968 14.256 88.2568 14.816 88.2408 15.568V15.772C88.2408 16.564 88.3688 17.176 88.6248 17.608C88.8888 18.032 89.3728 18.244 90.0768 18.244C90.4688 18.244 90.7888 18.136 91.0368 17.92C91.2928 17.704 91.4808 17.412 91.6008 17.044C91.7288 16.668 91.7928 16.24 91.7928 15.76C91.7928 15.024 91.6488 14.436 91.3608 13.996C91.0808 13.556 90.6448 13.336 90.0528 13.336ZM100.56 15.772C100.56 16.836 100.288 17.66 99.7437 18.244C99.2077 18.828 98.4797 19.12 97.5597 19.12C96.9917 19.12 96.4837 18.992 96.0357 18.736C95.5957 18.472 95.2477 18.092 94.9917 17.596C94.7357 17.092 94.6077 16.484 94.6077 15.772C94.6077 14.708 94.8757 13.888 95.4117 13.312C95.9477 12.736 96.6757 12.448 97.5957 12.448C98.1797 12.448 98.6917 12.58 99.1317 12.844C99.5797 13.1 99.9277 13.476 100.176 13.972C100.432 14.46 100.56 15.06 100.56 15.772ZM95.6997 15.772C95.6997 16.532 95.8477 17.136 96.1437 17.584C96.4477 18.024 96.9277 18.244 97.5837 18.244C98.2317 18.244 98.7077 18.024 99.0117 17.584C99.3157 17.136 99.4677 16.532 99.4677 15.772C99.4677 15.012 99.3157 14.416 99.0117 13.984C98.7077 13.552 98.2277 13.336 97.5717 13.336C96.9157 13.336 96.4397 13.552 96.1437 13.984C95.8477 14.416 95.6997 15.012 95.6997 15.772ZM110.971 14.188C110.971 14.588 110.851 14.9 110.611 15.124C110.371 15.348 110.063 15.5 109.687 15.58V15.628C110.087 15.684 110.435 15.828 110.731 16.06C111.027 16.284 111.175 16.636 111.175 17.116C111.175 17.66 110.971 18.112 110.563 18.472C110.163 18.824 109.499 19 108.571 19H105.799V12.568H108.559C109.015 12.568 109.423 12.62 109.783 12.724C110.151 12.82 110.439 12.988 110.647 13.228C110.863 13.46 110.971 13.78 110.971 14.188ZM109.903 14.32C109.903 14.016 109.791 13.796 109.567 13.66C109.351 13.516 108.995 13.444 108.499 13.444H106.855V15.208H108.307C109.371 15.208 109.903 14.912 109.903 14.32ZM110.083 17.116C110.083 16.748 109.943 16.484 109.663 16.324C109.383 16.164 108.971 16.084 108.427 16.084H106.855V18.148H108.451C108.979 18.148 109.383 18.072 109.663 17.92C109.943 17.76 110.083 17.492 110.083 17.116Z" fill="#BDBDBD"/>
<path d="M69.7 26.8H71.82L77.34 41H74.98L73.48 37.14H68L66.52 41H64.14L69.7 26.8ZM73.04 35.48L70.76 29.26L68.4 35.48H73.04ZM84.9061 41.2C84.0661 41.2 83.3261 41 82.6861 40.6C82.0461 40.2 81.5394 39.68 81.1661 39.04V45.26H78.9661V30.54H80.9061V32.42C81.3061 31.7933 81.8261 31.2933 82.4661 30.92C83.1061 30.5467 83.8194 30.36 84.6061 30.36C85.5661 30.36 86.4128 30.6133 87.1461 31.12C87.8928 31.6133 88.4794 32.2733 88.9061 33.1C89.3328 33.9133 89.5461 34.8 89.5461 35.76C89.5461 36.7733 89.3461 37.6933 88.9461 38.52C88.5461 39.3333 87.9994 39.9867 87.3061 40.48C86.6128 40.96 85.8128 41.2 84.9061 41.2ZM84.1861 39.32C84.8128 39.32 85.3528 39.1533 85.8061 38.82C86.2728 38.4733 86.6328 38.0333 86.8861 37.5C87.1528 36.9533 87.2861 36.3733 87.2861 35.76C87.2861 35.12 87.1394 34.5333 86.8461 34C86.5661 33.4667 86.1794 33.04 85.6861 32.72C85.2061 32.4 84.6528 32.24 84.0261 32.24C83.6528 32.24 83.2594 32.3333 82.8461 32.52C82.4461 32.7067 82.0928 32.9533 81.7861 33.26C81.4794 33.5667 81.2728 33.9133 81.1661 34.3V37.04C81.4328 37.68 81.8394 38.22 82.3861 38.66C82.9461 39.1 83.5461 39.32 84.1861 39.32ZM97.6147 41.2C96.7747 41.2 96.0347 41 95.3947 40.6C94.7547 40.2 94.248 39.68 93.8747 39.04V45.26H91.6747V30.54H93.6147V32.42C94.0147 31.7933 94.5347 31.2933 95.1747 30.92C95.8147 30.5467 96.528 30.36 97.3147 30.36C98.2747 30.36 99.1214 30.6133 99.8547 31.12C100.601 31.6133 101.188 32.2733 101.615 33.1C102.041 33.9133 102.255 34.8 102.255 35.76C102.255 36.7733 102.055 37.6933 101.655 38.52C101.255 39.3333 100.708 39.9867 100.015 40.48C99.3214 40.96 98.5214 41.2 97.6147 41.2ZM96.8947 39.32C97.5214 39.32 98.0614 39.1533 98.5147 38.82C98.9814 38.4733 99.3414 38.0333 99.5947 37.5C99.8614 36.9533 99.9947 36.3733 99.9947 35.76C99.9947 35.12 99.848 34.5333 99.5547 34C99.2747 33.4667 98.888 33.04 98.3947 32.72C97.9147 32.4 97.3614 32.24 96.7347 32.24C96.3614 32.24 95.968 32.3333 95.5547 32.52C95.1547 32.7067 94.8014 32.9533 94.4947 33.26C94.188 33.5667 93.9814 33.9133 93.8747 34.3V37.04C94.1414 37.68 94.548 38.22 95.0947 38.66C95.6547 39.1 96.2547 39.32 96.8947 39.32ZM118.155 30.14C117.981 29.94 117.695 29.7333 117.295 29.52C116.908 29.2933 116.455 29.1 115.935 28.94C115.415 28.78 114.875 28.7 114.315 28.7C113.368 28.7 112.668 28.8733 112.215 29.22C111.775 29.5667 111.555 30.0467 111.555 30.66C111.555 31.1133 111.681 31.4733 111.935 31.74C112.188 31.9933 112.575 32.2133 113.095 32.4C113.615 32.5733 114.268 32.7533 115.055 32.94C116.015 33.1667 116.841 33.44 117.535 33.76C118.241 34.0667 118.781 34.48 119.155 35C119.541 35.52 119.735 36.2067 119.735 37.06C119.735 38.0333 119.501 38.82 119.035 39.42C118.568 40.02 117.935 40.46 117.135 40.74C116.348 41.0067 115.481 41.14 114.535 41.14C113.455 41.14 112.408 40.9733 111.395 40.64C110.381 40.3067 109.475 39.8333 108.675 39.22L109.695 37.3C109.921 37.5267 110.281 37.7867 110.775 38.08C111.268 38.36 111.841 38.6067 112.495 38.82C113.161 39.02 113.855 39.12 114.575 39.12C115.455 39.12 116.135 38.9667 116.615 38.66C117.095 38.34 117.335 37.8867 117.335 37.3C117.335 36.82 117.175 36.44 116.855 36.16C116.548 35.8667 116.101 35.6267 115.515 35.44C114.941 35.24 114.248 35.0333 113.435 34.82C112.501 34.58 111.721 34.3067 111.095 34C110.468 33.6933 109.995 33.3067 109.675 32.84C109.368 32.3733 109.215 31.7667 109.215 31.02C109.215 30.0867 109.441 29.3 109.895 28.66C110.348 28.0067 110.961 27.52 111.735 27.2C112.521 26.8667 113.401 26.7 114.375 26.7C115.335 26.7 116.221 26.8533 117.035 27.16C117.848 27.4667 118.561 27.8467 119.175 28.3L118.155 30.14ZM127.456 40.46C127.176 40.5933 126.79 40.7467 126.296 40.92C125.803 41.08 125.276 41.16 124.716 41.16C124.023 41.16 123.423 40.9733 122.916 40.6C122.423 40.2267 122.176 39.62 122.176 38.78V32.24H120.796V30.54H122.176V27.1H124.376V30.54H126.656V32.24H124.376V38.08C124.403 38.4533 124.516 38.7267 124.716 38.9C124.93 39.06 125.19 39.14 125.496 39.14C125.803 39.14 126.096 39.0867 126.376 38.98C126.656 38.8733 126.863 38.7867 126.996 38.72L127.456 40.46ZM133.693 41.2C132.6 41.2 131.647 40.9533 130.833 40.46C130.033 39.9533 129.413 39.2933 128.973 38.48C128.533 37.6533 128.313 36.7533 128.313 35.78C128.313 34.8067 128.533 33.9133 128.973 33.1C129.427 32.2733 130.053 31.6133 130.853 31.12C131.667 30.6133 132.613 30.36 133.693 30.36C134.773 30.36 135.713 30.6133 136.513 31.12C137.327 31.6133 137.953 32.2733 138.393 33.1C138.847 33.9133 139.073 34.8067 139.073 35.78C139.073 36.7533 138.853 37.6533 138.413 38.48C137.973 39.2933 137.347 39.9533 136.533 40.46C135.733 40.9533 134.787 41.2 133.693 41.2ZM130.573 35.8C130.573 36.4667 130.713 37.0667 130.993 37.6C131.273 38.1333 131.647 38.5533 132.113 38.86C132.58 39.1667 133.107 39.32 133.693 39.32C134.267 39.32 134.787 39.1667 135.253 38.86C135.733 38.54 136.113 38.1133 136.393 37.58C136.673 37.0467 136.813 36.4467 136.813 35.78C136.813 35.1133 136.673 34.5133 136.393 33.98C136.113 33.4467 135.733 33.0267 135.253 32.72C134.787 32.4 134.267 32.24 133.693 32.24C133.12 32.24 132.593 32.4 132.113 32.72C131.647 33.0267 131.273 33.4533 130.993 34C130.713 34.5333 130.573 35.1333 130.573 35.8ZM147.055 32.44C146.201 32.4667 145.441 32.6667 144.775 33.04C144.121 33.4 143.655 33.92 143.375 34.6V41H141.175V30.54H143.215V32.88C143.575 32.16 144.048 31.5867 144.635 31.16C145.221 30.72 145.841 30.48 146.495 30.44C146.615 30.44 146.721 30.44 146.815 30.44C146.908 30.44 146.988 30.4467 147.055 30.46V32.44ZM153.369 41.2C152.289 41.2 151.343 40.9533 150.529 40.46C149.716 39.9667 149.083 39.3133 148.629 38.5C148.176 37.6733 147.949 36.7733 147.949 35.8C147.949 34.8133 148.176 33.9067 148.629 33.08C149.083 32.2533 149.716 31.5933 150.529 31.1C151.343 30.6067 152.296 30.36 153.389 30.36C154.483 30.36 155.429 30.6133 156.229 31.12C157.029 31.6133 157.643 32.2667 158.069 33.08C158.509 33.8933 158.729 34.7667 158.729 35.7C158.729 36.0333 158.709 36.3 158.669 36.5H150.289C150.329 37.1133 150.496 37.6533 150.789 38.12C151.096 38.5733 151.476 38.9333 151.929 39.2C152.396 39.4533 152.903 39.58 153.449 39.58C154.036 39.58 154.589 39.4333 155.109 39.14C155.629 38.8467 155.989 38.46 156.189 37.98L158.069 38.52C157.709 39.3067 157.109 39.9533 156.269 40.46C155.443 40.9533 154.476 41.2 153.369 41.2ZM150.229 35.04H156.549C156.496 34.44 156.323 33.9133 156.029 33.46C155.736 32.9933 155.356 32.6333 154.889 32.38C154.436 32.1133 153.929 31.98 153.369 31.98C152.823 31.98 152.316 32.1133 151.849 32.38C151.396 32.6333 151.023 32.9933 150.729 33.46C150.436 33.9133 150.269 34.44 150.229 35.04Z" fill="white"/>
<defs>
<clipPath id="clip0_38:53494">
<rect width="36" height="32" fill="white" transform="translate(16 8)"/>
</clipPath>
</defs>
</svg>
