<svg width="70" height="70" viewBox="0 0 70 70" fill="none" xmlns="http://www.w3.org/2000/svg">
<path d="M69.5728 10.6356L65.1978 6.26062C64.7306 5.79496 64.0099 5.69666 63.4432 6.02561L53.2349 11.859C52.7792 12.1181 52.5 12.6023 52.5 13.125V15.4379L42.7275 25.209C40.5742 23.9814 38.4237 23.3363 36.4584 23.3334C29.5911 23.3334 27.8935 27.5546 26.6546 30.6379C25.5009 33.5032 24.7661 34.9986 21.875 35C19.1018 35 16.6828 35.4267 14.5834 36.1859V19.9363L23.9579 11.6035C26.8774 11.2871 29.1668 8.83654 29.1668 5.83338C29.1666 2.61611 26.5491 0 23.3334 0C20.332 0 17.8808 2.28758 17.5634 5.20707L6.20088 17.9899C5.68818 18.5667 5.71375 19.4439 6.26076 19.9894L6.67146 20.4001C4.48465 22.7359 0 28.806 0 39.375V68.5416C0 69.3477 0.652285 70 1.45838 70C2.26447 70 2.91676 69.3477 2.91676 68.5416V39.375C2.91676 29.7709 6.8965 24.4314 8.73605 22.4648L9.17738 22.9061C9.46217 23.1896 9.83541 23.3334 10.2085 23.3334C10.5532 23.3334 10.9007 23.2109 11.1769 22.9645L11.6668 22.5291V37.6399C7.91191 40.0772 5.83338 44.1212 5.83338 49.5834C5.83338 54.1335 8.18453 58.8789 11.6668 62.6564V67.0834H10.2084C9.40229 67.0834 8.75 67.7357 8.75 68.5418C8.75 69.3477 9.40229 70 10.2084 70H16.0418C16.8479 70 17.5001 69.3477 17.5001 68.5416C17.5001 67.7355 16.8479 67.0832 16.0418 67.0832H14.5834V65.3737C18.0979 68.1769 22.2488 70 26.25 70C35.5184 70 40.8334 64.1524 40.8334 53.9584C40.8334 51.0673 42.3288 50.3311 45.1942 49.179C48.2761 47.9399 52.4973 46.2424 52.4973 39.3751C52.4973 37.4098 51.8536 35.2607 50.6231 33.1045L60.3956 23.3334H62.7085C63.2326 23.3334 63.7139 23.0528 63.976 22.5985L69.8094 12.3901C70.1338 11.8191 70.037 11.0999 69.5728 10.6356ZM25.8228 57.9061C25.538 58.1909 25.1647 58.3334 24.7916 58.3334C24.4185 58.3334 24.0454 58.1909 23.7605 57.9061L17.9271 52.0728C17.3574 51.503 17.3574 50.5802 17.9271 50.0106C18.4968 49.4409 19.4197 49.4409 19.9892 50.0106L25.8226 55.844C26.3925 56.4136 26.3925 57.3364 25.8228 57.9061ZM33.5416 49.5834C29.5198 49.5834 26.25 46.3121 26.25 42.2918C26.25 38.2714 29.5199 35 33.5416 35C37.5635 35 40.8332 38.2713 40.8332 42.2916C40.8332 46.312 37.5635 49.5834 33.5416 49.5834Z" fill="white"/>
</svg>
