<svg width="81" height="81" viewBox="0 0 81 81" fill="none" xmlns="http://www.w3.org/2000/svg">
<path fill-rule="evenodd" clip-rule="evenodd" d="M36.8007 0.528086C29.0238 1.28017 21.3152 4.44097 15.2708 9.35626C13.4928 10.8021 10.6777 13.6383 9.25973 15.4128C5.67427 19.8994 2.73611 25.9681 1.51754 31.4036C0.7523 34.8179 0.578979 36.4776 0.578979 40.3943C0.578979 44.3109 0.7523 45.9707 1.51754 49.3849C2.7627 54.9389 5.77751 61.0945 9.48217 65.6462C10.9287 67.4234 13.7661 70.2372 15.5414 71.6546C20.0307 75.2391 26.1071 78.1782 31.5392 79.3927C35.9524 80.3794 34.4551 80.3246 58.5619 80.3819L80.579 80.4343V77.0678V73.7014L71.7266 73.6609L62.8741 73.6205L64.6483 72.2949C71.8416 66.9199 77.2544 58.6945 79.3897 49.8937C80.2791 46.2271 80.494 44.3766 80.4923 40.3943C80.4914 38.4113 80.4044 36.2622 80.2929 35.469C79.6403 30.8303 78.4291 26.8433 76.4451 22.8039C74.3508 18.5398 72.0242 15.3024 68.6658 11.9797C65.3662 8.71488 62.3435 6.56948 58.1317 4.50273C54.1865 2.56669 50.5341 1.42496 46.1651 0.761843C44.2003 0.463667 38.8479 0.32998 36.8007 0.528086ZM42.8801 7.33329C45.6149 7.97561 48.1913 10.0322 49.4306 12.5624C50.2746 14.2853 50.6018 15.8276 50.4923 17.5659C50.2606 21.2414 48.2925 24.2691 45.0565 25.9283C43.5912 26.6796 42.2811 26.9859 40.5337 26.9859C35.1521 26.9859 30.9163 22.9792 30.5751 17.5659C30.4656 15.8276 30.7928 14.2853 31.6368 12.5624C32.8586 10.0679 35.4381 7.98812 38.111 7.3422C39.3549 7.04168 41.6204 7.03746 42.8801 7.33329ZM20.7286 23.5031C24.1724 24.3836 26.928 27.0361 27.9614 30.4655C28.1685 31.153 28.2423 31.9051 28.2374 33.2799C28.2317 34.8931 28.1736 35.3171 27.8234 36.3031C27.2646 37.8758 26.5488 39.0313 25.4357 40.1572C21.9422 43.6906 16.5206 44.1627 12.5032 41.2833C10.5099 39.8545 9.04762 37.6259 8.54909 35.2566C7.03706 28.0716 13.647 21.6928 20.7286 23.5031ZM65.1539 23.5031C69.5808 24.6349 72.7423 28.6483 72.755 33.1525C72.7709 38.8527 67.775 43.5555 62.1413 43.1435C56.0872 42.7006 51.8351 37.235 52.9473 31.3255C54.0016 25.7228 59.6578 22.0981 65.1539 23.5031ZM42.3082 37.6087C42.6389 37.8347 43.0964 38.29 43.325 38.6205C43.6843 39.1403 43.7404 39.3801 43.7404 40.3943C43.7404 41.4084 43.6843 41.6483 43.325 42.168C43.0964 42.4985 42.6389 42.9559 42.3082 43.1843C41.7882 43.5435 41.5483 43.5996 40.5337 43.5996C39.5191 43.5996 39.2792 43.5435 38.7592 43.1843C37.8106 42.5292 37.3487 41.7271 37.2766 40.6099C37.184 39.1739 37.8439 38.0315 39.1504 37.3668C39.9537 36.9583 41.5331 37.0791 42.3082 37.6087ZM29.8967 49.7749C32.2742 50.5684 34.6664 52.6359 35.7295 54.816C36.565 56.5296 36.8417 57.9068 36.7358 59.8264C36.5551 63.1013 35.0358 65.7658 32.3097 67.5884C27.9739 70.4871 22.0633 69.5005 18.8852 65.3476C14.5524 59.6858 17.3727 51.4887 24.2991 49.6121C25.8171 49.2007 28.4019 49.2759 29.8967 49.7749ZM56.7068 49.6151C63.6553 51.3915 66.5336 59.6614 62.1822 65.3476C60.1775 67.9672 56.7444 69.5153 53.5386 69.2451C49.4543 68.901 46.1341 66.2914 44.7378 62.3275C44.2715 61.0036 44.1666 58.5521 44.5137 57.0901C45.4308 53.2284 48.7766 50.0438 52.5786 49.4141C53.6653 49.2342 55.5816 49.3274 56.7068 49.6151Z" fill="white"/>
</svg>
