<svg width="70" height="69" viewBox="0 0 70 69" fill="none" xmlns="http://www.w3.org/2000/svg">
<path d="M68.1931 0.617976C67.6764 0.161314 66.9919 -0.0579809 66.306 0.0131725L22.5894 4.87053C21.3588 5.00671 20.4277 6.04669 20.4279 7.28462V50.5666C18.2267 49.2494 15.707 48.5598 13.1418 48.5726C6.44581 48.5728 0.998169 52.9298 0.998169 58.2875C0.998169 63.6452 6.44581 68.0023 13.1416 68.0023C19.8374 68.0023 25.2851 63.6476 25.2851 58.2875V21.6142L64.1443 17.2862V45.702C61.9424 44.3874 59.4227 43.7003 56.8582 43.7153C50.1623 43.7153 44.7148 48.0724 44.7148 53.4301C44.7148 58.7878 50.1624 63.145 56.8582 63.145C63.5541 63.145 69.0017 58.7902 69.0017 53.4301V2.42741C69.0017 1.73665 68.7077 1.07862 68.1931 0.617976Z" fill="white"/>
</svg>
