<svg width="80" height="80" viewBox="0 0 80 80" fill="none" xmlns="http://www.w3.org/2000/svg">
<path d="M75.9904 23.9936H68.9712C68.4189 23.9936 67.9712 23.5459 67.9712 22.9936V3.98827C67.9712 1.79152 66.1797 0 63.9829 0C61.7862 0 59.9947 1.79152 59.9947 3.98827V22.9936C59.9947 23.5459 59.547 23.9936 58.9947 23.9936H4.0096C1.79152 23.9936 0 25.7851 0 28.0032V75.9904C0 78.2085 1.79152 80 4.0096 80H75.9904C78.2085 80 80 78.2085 80 75.9904V28.0032C79.9787 25.7851 78.1871 23.9936 75.9904 23.9936ZM8.16849 40.9467C8.16849 40.3944 8.6162 39.9467 9.16849 39.9467H34.9371C35.4894 39.9467 35.9371 40.3944 35.9371 40.9467V46.9445C35.9371 47.4968 35.4894 47.9445 34.9371 47.9445H9.16849C8.6162 47.9445 8.16849 47.4968 8.16849 46.9445V40.9467ZM9.16849 63.9829C8.6162 63.9829 8.16849 63.5352 8.16849 62.9829V56.9851C8.16849 56.4328 8.6162 55.9851 9.16849 55.9851H34.9371C35.4894 55.9851 35.9371 56.4328 35.9371 56.9851V62.9829C35.9371 63.5352 35.4894 63.9829 34.9371 63.9829H9.16849ZM59.9947 63.9616C53.3618 63.9616 47.9872 58.587 47.9872 51.9541C47.9872 45.3213 53.3618 39.9467 59.9947 39.9467C66.6276 39.9467 72.0021 45.3213 72.0021 51.9541C72.0021 58.587 66.6276 63.9616 59.9947 63.9616Z" fill="white"/>
</svg>
