<svg width="80" height="80" viewBox="0 0 80 80" fill="none" xmlns="http://www.w3.org/2000/svg">
<path d="M68.4515 42.7061H62.2646C62.8953 44.4326 63.2398 46.2959 63.2398 48.2379V71.6208C63.2398 72.4305 63.0989 73.2077 62.8425 73.9305H73.0708C76.8915 73.9305 79.9998 70.822 79.9998 67.0014V54.2544C80 47.8867 74.8193 42.7061 68.4515 42.7061Z" fill="white"/>
<path d="M16.7602 48.2389C16.7602 46.2967 17.1047 44.4336 17.7353 42.707H11.5485C5.18063 42.707 0 47.8877 0 54.2555V67.0025C0 70.8232 3.10829 73.9316 6.92908 73.9316H17.1575C16.9011 73.2085 16.7602 72.4315 16.7602 71.6218V48.2389Z" fill="white"/>
<path d="M47.0728 36.6904H32.9287C26.5609 36.6904 21.3802 41.8711 21.3802 48.2389V71.6217C21.3802 72.8972 22.4143 73.9314 23.6899 73.9314H56.3116C57.5872 73.9314 58.6212 72.8974 58.6212 71.6217V48.2389C58.6212 41.8711 53.4406 36.6904 47.0728 36.6904Z" fill="white"/>
<path d="M40.0006 6.06885C32.3425 6.06885 26.1122 12.2992 26.1122 19.9575C26.1122 25.152 28.9792 29.6887 33.2133 32.0706C35.2216 33.2003 37.5369 33.8459 40.0006 33.8459C42.4644 33.8459 44.7797 33.2003 46.788 32.0706C51.0222 29.6887 53.8891 25.1519 53.8891 19.9575C53.8891 12.2993 47.6588 6.06885 40.0006 6.06885Z" fill="white"/>
<path d="M15.612 19.0135C9.8846 19.0135 5.22522 23.6729 5.22522 29.4003C5.22522 35.1276 9.8846 39.787 15.612 39.787C17.0648 39.787 18.4482 39.4861 19.7049 38.9452C21.8778 38.0097 23.6693 36.3537 24.7779 34.2795C25.556 32.8237 25.9987 31.1629 25.9987 29.4003C25.9987 23.6731 21.3393 19.0135 15.612 19.0135Z" fill="white"/>
<path d="M64.3876 19.0135C58.6602 19.0135 54.0009 23.6729 54.0009 29.4003C54.0009 31.1631 54.4435 32.8239 55.2216 34.2795C56.3302 36.3539 58.1218 38.0098 60.2946 38.9452C61.5513 39.4861 62.9348 39.787 64.3876 39.787C70.115 39.787 74.7743 35.1276 74.7743 29.4003C74.7743 23.6729 70.115 19.0135 64.3876 19.0135Z" fill="white"/>
</svg>
