<svg width="70" height="69" viewBox="0 0 70 69" fill="none" xmlns="http://www.w3.org/2000/svg">
<path d="M61.494 18.5454H8.50556C4.1158 18.5454 0.557373 22.104 0.557373 26.4936V60.053C0.557373 64.4427 4.11597 68.0012 8.50556 68.0012H61.494C65.8838 68.0012 69.4422 64.4426 69.4422 60.053V26.4936C69.4422 22.1038 65.8836 18.5454 61.494 18.5454ZM45.2897 44.4642C45.1272 44.7898 44.8632 45.0537 44.5378 45.2163L27.6698 55.1074C27.4105 55.2863 27.1015 55.3789 26.7867 55.3723L25.9919 55.1074C25.4933 54.7793 25.2203 54.1995 25.2853 53.606V33.8236C25.2203 33.2303 25.4931 32.6503 25.9919 32.3222C26.499 31.9804 27.1627 31.9804 27.67 32.3222L44.538 42.2133C45.3669 42.6273 45.7035 43.6349 45.2897 44.4642Z" fill="white"/>
<path d="M9.65251 13.2459H60.433C61.4085 13.2459 62.1993 12.4552 62.1993 11.4797C62.1993 10.5041 61.4085 9.71338 60.433 9.71338H9.65251C8.67699 9.71338 7.88623 10.5041 7.88623 11.4797C7.88623 12.4552 8.67699 13.2459 9.65251 13.2459Z" fill="white"/>
<path d="M17.1604 3.53257H52.8394C53.8149 3.53257 54.6057 2.7418 54.6057 1.76628C54.6057 0.790762 53.8149 0 52.8394 0H17.1604C16.1849 0 15.3942 0.790762 15.3942 1.76628C15.3942 2.7418 16.1851 3.53257 17.1604 3.53257Z" fill="white"/>
</svg>
