<svg width="80" height="80" viewBox="0 0 80 80" fill="none" xmlns="http://www.w3.org/2000/svg">
<g clip-path="url(#clip0)">
<path d="M45.2516 16.4991H8.75274C3.93873 16.4991 0 20.4379 0 25.2519V54.7486C0 59.5626 3.93873 63.5013 8.75274 63.5013H45.2516C50.0657 63.5013 54.0044 59.5626 54.0044 54.7486V25.2519C54.0044 20.3503 50.0657 16.4991 45.2516 16.4991Z" fill="white"/>
<path d="M73.5231 21.3126C72.9979 21.4001 72.4728 21.6627 72.0351 21.9253L58.3809 29.8028V50.1091L72.1227 57.9866C74.6609 59.4745 77.8119 58.5992 79.2999 56.061C79.7375 55.2732 80.0001 54.3979 80.0001 53.4351V26.3892C80.0001 23.1507 76.9367 20.5249 73.5231 21.3126Z" fill="white"/>
</g>
<defs>
<clipPath id="clip0">
<rect width="80" height="80" fill="white"/>
</clipPath>
</defs>
</svg>
