<svg width="80" height="80" viewBox="0 0 80 80" fill="none" xmlns="http://www.w3.org/2000/svg">
<g clip-path="url(#clip0)">
<path d="M46.8673 25.6748C46.5965 24.6641 45.6884 23.9553 44.6421 23.938C29.3224 23.6851 14.2795 27.7158 1.13901 35.5945C0.241506 36.1326 -0.190525 37.2005 0.0804121 38.2112L5.39354 58.0403C8.63385 70.1333 19.1946 78.9406 31.6728 79.9562C33.2109 80.0816 34.7529 79.9369 36.2278 79.5417C37.7028 79.1464 39.1106 78.5008 40.3799 77.6231C50.6785 70.5044 55.4209 57.5967 52.1806 45.5037L46.8673 25.6748ZM14.1128 48.3222C13.5334 48.4775 12.8949 48.4117 12.3343 48.0881C11.2134 47.4408 10.8292 46.0075 11.4763 44.8864C12.5271 43.0664 14.2239 41.7644 16.254 41.2205C18.284 40.6766 20.4043 40.9556 22.2245 42.0066C23.3456 42.6537 23.7296 44.0872 23.0823 45.2081C22.4351 46.3291 21.0017 46.7131 19.8807 46.0659C19.1449 45.6411 18.2878 45.5283 17.4673 45.7483C16.6467 45.9681 15.9609 46.4944 15.5362 47.2302C15.2123 47.7906 14.6923 48.1669 14.1128 48.3222ZM40.8948 61.4069C39.1009 64.5139 36.2104 66.6016 32.9915 67.4641C29.7726 68.3266 26.2254 67.9639 23.1184 66.1702C21.9973 65.523 21.6132 64.0897 22.2606 62.9686C22.9078 61.8477 24.3412 61.4633 25.4621 62.1108C29.4379 64.4058 34.5401 63.0387 36.8354 59.0633C37.4828 57.9422 38.9162 57.5581 40.037 58.2055C41.1581 58.8525 41.5421 60.2858 40.8948 61.4069ZM41.1934 40.3553C40.5462 41.4762 39.1128 41.8603 37.9918 41.2131C37.256 40.7883 36.3988 40.6755 35.5784 40.8955C34.7578 41.1153 34.072 41.6416 33.6473 42.3773C33.3235 42.9378 32.8034 43.3142 32.224 43.4694C31.6446 43.6247 31.0062 43.5589 30.4456 43.2353C29.3246 42.588 28.9404 41.1547 29.5874 40.0336C30.6382 38.2136 32.3349 36.9116 34.3651 36.3676C36.3951 35.8237 38.5154 36.1028 40.3356 37.1537C41.4565 37.8008 41.8407 39.2344 41.1934 40.3553Z" fill="white"/>
<path d="M78.4936 5.41905C64.1846 -0.0582892 48.67 -1.41563 33.6272 1.49374C32.5998 1.69249 31.8286 2.54812 31.7373 3.59062L30.2823 20.2217C34.5702 19.5706 38.9155 19.2391 43.283 19.2391C43.7594 19.2391 44.2424 19.2431 44.7186 19.2509C47.8406 19.3023 50.586 21.445 51.3942 24.4612L54.1263 34.6569C57.1911 35.1164 60.0789 36.6608 62.1739 39.1576C63.0061 40.1492 62.8767 41.6276 61.885 42.4595C61.3892 42.8755 60.7717 43.0512 60.1742 42.9989C59.5767 42.9467 58.9991 42.6664 58.5831 42.1706C57.7349 41.1597 56.6833 40.3934 55.5289 39.8916L56.7077 44.2905C57.5606 47.4737 57.9342 50.7058 57.8647 53.8969C69.0807 50.2183 77.1632 40.13 78.2014 28.2626L79.9907 7.81218C80.0818 6.76968 79.471 5.79312 78.4936 5.41905ZM51.1003 16.4205C49.4905 17.7714 47.4508 18.4145 45.3569 18.2312C43.2633 18.0481 41.3663 17.0606 40.0155 15.4506C39.1833 14.4591 39.3127 12.9806 40.3044 12.1487C41.2959 11.3167 42.7742 11.4461 43.6063 12.4376C44.1524 13.0884 44.9192 13.4876 45.7655 13.5617C46.6119 13.6358 47.4363 13.3758 48.0869 12.8297C49.0788 11.9978 50.5567 12.1269 51.3889 13.1184C52.221 14.1101 52.0917 15.5884 51.1003 16.4205ZM69.7789 18.0547C68.1691 19.4056 66.1294 20.0487 64.0356 19.8656C61.9421 19.6825 60.045 18.695 58.6941 17.085C57.8621 16.0934 57.9913 14.615 58.983 13.7831C59.9746 12.9511 61.453 13.0805 62.2849 14.072C62.831 14.7228 63.5978 15.122 64.4441 15.1961C65.2905 15.2701 66.1149 15.0101 66.7655 14.4641C67.7574 13.6322 69.2353 13.7612 70.0675 14.7528C70.8997 15.7442 70.7705 17.2225 69.7789 18.0547Z" fill="white"/>
</g>
<defs>
<clipPath id="clip0">
<rect width="80" height="80" fill="white"/>
</clipPath>
</defs>
</svg>
