<svg width="28" height="29" viewBox="0 0 28 29" fill="none" xmlns="http://www.w3.org/2000/svg">
<rect y="0.199951" width="28" height="28" rx="14" fill="#EF225D"/>
<g clip-path="url(#clip0)">
<path d="M9 12.9998C9 9.68605 11.6863 6.99976 15 6.99976C18.3137 6.99976 21 9.68605 21 12.9998V18.9169C21 18.9699 21.0211 19.0208 21.0586 19.0583C21.1962 19.196 21.0762 19.4291 20.8842 19.3971L18.5775 19.0127C18.5259 19.0041 18.4737 18.9998 18.4214 18.9998H15.5H14C11.2386 18.9998 9 16.7612 9 13.9998V12.9998Z" fill="white"/>
<path d="M21.9423 18.7575L21.013 16.053C21.4609 15.1373 21.6977 14.1189 21.6993 13.0943C21.702 11.3126 21.0127 9.62801 19.7583 8.35082C18.5036 7.07338 16.8316 6.35429 15.0504 6.32607C13.2033 6.29688 11.4672 6.99945 10.162 8.30464C8.90342 9.56317 8.20536 11.2223 8.18326 12.9953C6.94282 13.9293 6.21066 15.3854 6.21307 16.9407C6.21423 17.6685 6.37804 18.3919 6.68845 19.0462L6.04835 20.9089C5.93832 21.2291 6.01869 21.5768 6.25813 21.8163C6.42663 21.9848 6.64879 22.0745 6.87726 22.0745C6.97338 22.0745 7.07063 22.0586 7.16548 22.026L9.02826 21.3859C9.68248 21.6964 10.406 21.8602 11.1338 21.8613C11.1364 21.8613 11.1389 21.8613 11.1415 21.8613C12.72 21.8613 14.1871 21.1102 15.1177 19.8394C16.086 19.8139 17.0441 19.5795 17.9103 19.1558L20.6148 20.0851C20.7275 20.1238 20.843 20.1427 20.9573 20.1427C21.2288 20.1427 21.4928 20.036 21.693 19.8357C21.9775 19.5512 22.073 19.138 21.9423 18.7575ZM11.1415 20.9089C11.1394 20.9089 11.1373 20.9089 11.1352 20.9089C10.491 20.908 9.85133 20.7492 9.28536 20.4497C9.16898 20.3882 9.03236 20.3775 8.90792 20.4203L6.99782 21.0766L7.65417 19.1666C7.69692 19.0421 7.68629 18.9055 7.62473 18.7891C7.32529 18.2231 7.16648 17.5834 7.16548 16.9392C7.16388 15.903 7.56698 14.9208 8.27189 14.1854C8.50214 15.589 9.17111 16.8825 10.208 17.901C11.2373 18.9119 12.5311 19.5556 13.9271 19.7661C13.19 20.4926 12.1964 20.9089 11.1415 20.9089ZM21.0195 19.1623C20.9924 19.1894 20.9603 19.1968 20.9242 19.1843L18.0289 18.1894C17.9787 18.1722 17.9263 18.1636 17.8742 18.1636C17.7974 18.1636 17.7208 18.1822 17.6515 18.2189C16.8249 18.6562 15.8907 18.8881 14.9501 18.8896C14.947 18.8896 14.9441 18.8896 14.9411 18.8896C11.7891 18.8896 9.18554 16.3291 9.13561 13.1779C9.11045 11.5909 9.71414 10.0993 10.8354 8.97804C11.9567 7.85676 13.4485 7.25329 15.0353 7.27829C18.1896 7.32832 20.7518 9.93667 20.7469 13.0928C20.7454 14.0335 20.5135 14.9676 20.0762 15.7942C20.0147 15.9106 20.004 16.0472 20.0468 16.1717L21.0416 19.0669C21.054 19.1032 21.0466 19.1353 21.0195 19.1623Z" fill="white"/>
<path d="M17.7783 10.5596H12.1045C11.8415 10.5596 11.6284 10.7728 11.6284 11.0358C11.6284 11.2988 11.8416 11.5119 12.1045 11.5119H17.7783C18.0413 11.5119 18.2545 11.2987 18.2545 11.0358C18.2545 10.7728 18.0413 10.5596 17.7783 10.5596Z" fill="#EF225D"/>
<path d="M17.7783 12.5181H12.1045C11.8415 12.5181 11.6284 12.7313 11.6284 12.9943C11.6284 13.2572 11.8416 13.4704 12.1045 13.4704H17.7783C18.0413 13.4704 18.2545 13.2572 18.2545 12.9943C18.2545 12.7313 18.0413 12.5181 17.7783 12.5181Z" fill="#EF225D"/>
<path d="M15.5934 14.4766H12.1036C11.8406 14.4766 11.6274 14.6898 11.6274 14.9528C11.6274 15.2158 11.8406 15.4289 12.1036 15.4289H15.5933C15.8563 15.4289 16.0695 15.2157 16.0695 14.9528C16.0695 14.6898 15.8564 14.4766 15.5934 14.4766Z" fill="#EF225D"/>
</g>
<defs>
<clipPath id="clip0">
<rect width="16" height="16" fill="white" transform="translate(6 6.19995)"/>
</clipPath>
</defs>
</svg>
