<svg width="28" height="29" viewBox="0 0 28 29" fill="none" xmlns="http://www.w3.org/2000/svg">
<circle cx="14" cy="14.2" r="14" fill="#111111"/>
<g clip-path="url(#clip0)">
<rect width="17.5" height="17.5" transform="translate(5.25 5.44995)" fill="black"/>
<path fill-rule="evenodd" clip-rule="evenodd" d="M10.6932 6.22732C11.5485 6.18795 11.8212 6.1792 14 6.1792C16.1787 6.1792 16.4515 6.18868 17.306 6.22732C18.1606 6.26597 18.744 6.40232 19.2544 6.59993C19.7889 6.80191 20.2737 7.11764 20.6748 7.52597C21.0831 7.92628 21.3981 8.41045 21.5994 8.94566C21.7977 9.45607 21.9333 10.0394 21.9727 10.8925C22.0121 11.7493 22.0208 12.022 22.0208 14.2C22.0208 16.3788 22.0114 16.6515 21.9727 17.5068C21.9341 18.3599 21.7977 18.9433 21.5994 19.4537C21.3981 19.989 21.0826 20.4739 20.6748 20.8748C20.2737 21.2832 19.7889 21.5982 19.2544 21.7994C18.744 21.9977 18.1606 22.1334 17.3075 22.1727C16.4515 22.2121 16.1787 22.2209 14 22.2209C11.8212 22.2209 11.5485 22.2114 10.6932 22.1727C9.8401 22.1341 9.25677 21.9977 8.74635 21.7994C8.21109 21.5981 7.72612 21.2826 7.32521 20.8748C6.91715 20.4743 6.60137 19.9895 6.39989 19.4544C6.20229 18.944 6.06666 18.3607 6.02729 17.5075C5.98791 16.6508 5.97916 16.3781 5.97916 14.2C5.97916 12.0213 5.98864 11.7486 6.02729 10.894C6.06593 10.0394 6.20229 9.45607 6.39989 8.94566C6.60167 8.41051 6.91769 7.92578 7.32593 7.52524C7.72628 7.11727 8.21076 6.8015 8.74562 6.59993C9.25604 6.40232 9.83937 6.2667 10.6925 6.22732H10.6932ZM17.2411 7.67107C16.3953 7.63243 16.1416 7.62441 14 7.62441C11.8584 7.62441 11.6047 7.63243 10.7589 7.67107C9.97646 7.7068 9.55208 7.83732 9.26916 7.94743C8.8951 8.09326 8.6275 8.26607 8.34677 8.5468C8.08066 8.8057 7.87586 9.12086 7.74739 9.4692C7.63729 9.75212 7.50677 10.1765 7.47104 10.9589C7.43239 11.8047 7.42437 12.0585 7.42437 14.2C7.42437 16.3416 7.43239 16.5953 7.47104 17.4412C7.50677 18.2236 7.63729 18.6479 7.74739 18.9309C7.87573 19.2787 8.08062 19.5944 8.34677 19.8533C8.60562 20.1194 8.92135 20.3243 9.26916 20.4526C9.55208 20.5627 9.97646 20.6933 10.7589 20.729C11.6047 20.7676 11.8577 20.7757 14 20.7757C16.1423 20.7757 16.3953 20.7676 17.2411 20.729C18.0235 20.6933 18.4479 20.5627 18.7308 20.4526C19.1049 20.3068 19.3725 20.134 19.6532 19.8533C19.9194 19.5944 20.1243 19.2787 20.2526 18.9309C20.3627 18.6479 20.4932 18.2236 20.529 17.4412C20.5676 16.5953 20.5756 16.3416 20.5756 14.2C20.5756 12.0585 20.5676 11.8047 20.529 10.9589C20.4932 10.1765 20.3627 9.75212 20.2526 9.4692C20.1068 9.09514 19.934 8.82753 19.6532 8.5468C19.3943 8.28071 19.0792 8.07592 18.7308 7.94743C18.4479 7.83732 18.0235 7.7068 17.2411 7.67107ZM12.9755 16.6726C13.5477 16.9108 14.1848 16.9429 14.778 16.7636C15.3712 16.5842 15.8837 16.2045 16.228 15.6892C16.5724 15.1739 16.7271 14.555 16.6659 13.9383C16.6046 13.3216 16.3311 12.7453 15.8922 12.3078C15.6124 12.0282 15.274 11.8141 14.9015 11.6809C14.529 11.5477 14.1316 11.4987 13.7379 11.5376C13.3442 11.5764 12.964 11.702 12.6246 11.9054C12.2853 12.1088 11.9953 12.3849 11.7755 12.7139C11.5557 13.0428 11.4116 13.4164 11.3535 13.8077C11.2954 14.199 11.3248 14.5984 11.4396 14.977C11.5543 15.3556 11.7516 15.704 12.0172 15.9972C12.2828 16.2904 12.6101 16.5211 12.9755 16.6726ZM11.0848 11.2848C11.4676 10.902 11.9221 10.5983 12.4223 10.3911C12.9225 10.1839 13.4586 10.0773 14 10.0773C14.5414 10.0773 15.0775 10.1839 15.5777 10.3911C16.0779 10.5983 16.5324 10.902 16.9152 11.2848C17.298 11.6677 17.6017 12.1221 17.8089 12.6223C18.0161 13.1225 18.1227 13.6586 18.1227 14.2C18.1227 14.7414 18.0161 15.2775 17.8089 15.7777C17.6017 16.2779 17.298 16.7324 16.9152 17.1152C16.142 17.8884 15.0934 18.3228 14 18.3228C12.9066 18.3228 11.858 17.8884 11.0848 17.1152C10.3116 16.3421 9.87727 15.2934 9.87727 14.2C9.87727 13.1066 10.3116 12.058 11.0848 11.2848ZM19.0371 10.6913C19.1319 10.6018 19.2079 10.4942 19.2604 10.3748C19.313 10.2554 19.341 10.1267 19.3429 9.99634C19.3448 9.86593 19.3205 9.73647 19.2715 9.61562C19.2225 9.49477 19.1497 9.38499 19.0575 9.29277C18.9652 9.20055 18.8555 9.12777 18.7346 9.07874C18.6138 9.02971 18.4843 9.00543 18.3539 9.00733C18.2235 9.00923 18.0948 9.03728 17.9754 9.08981C17.8561 9.14234 17.7484 9.21829 17.659 9.31316C17.4849 9.49766 17.3896 9.74273 17.3933 9.99634C17.397 10.2499 17.4994 10.4921 17.6788 10.6715C17.8581 10.8508 18.1003 10.9532 18.3539 10.9569C18.6075 10.9606 18.8526 10.8653 19.0371 10.6913Z" fill="white"/>
</g>
<defs>
<clipPath id="clip0">
<rect width="17.5" height="17.5" fill="white" transform="translate(5.25 5.44995)"/>
</clipPath>
</defs>
</svg>
