<svg width="28" height="29" viewBox="0 0 28 29" fill="none" xmlns="http://www.w3.org/2000/svg">
<g clip-path="url(#clip0)">
<circle cx="14.4961" cy="14.7" r="9.5" fill="white"/>
<path d="M14 0.76001C6.5772 0.76001 0.559998 6.77721 0.559998 14.2C0.559998 21.6228 6.5772 27.64 14 27.64C21.4228 27.64 27.44 21.6228 27.44 14.2C27.44 6.77721 21.4228 0.76001 14 0.76001ZM19.467 11.7696C19.4726 11.8844 19.474 11.9992 19.474 12.1112C19.474 15.6112 16.8126 19.6446 11.9434 19.6446C10.5046 19.647 9.09575 19.2338 7.8862 18.4546C8.092 18.4798 8.3034 18.4896 8.5176 18.4896C9.758 18.4896 10.899 18.0682 11.8048 17.357C11.2528 17.3462 10.7179 17.1634 10.2748 16.8341C9.83157 16.5049 9.50215 16.0456 9.3324 15.5202C9.72881 15.5956 10.1372 15.5798 10.5266 15.474C9.92746 15.3529 9.38867 15.0282 9.00159 14.5551C8.6145 14.0821 8.40295 13.4897 8.4028 12.8784V12.8462C8.7598 13.0436 9.1686 13.164 9.6026 13.178C9.04091 12.8041 8.6433 12.2297 8.49106 11.5724C8.33882 10.915 8.44347 10.2244 8.7836 9.64161C9.44853 10.4592 10.2778 11.1281 11.2176 11.6048C12.1574 12.0816 13.1869 12.3557 14.2394 12.4094C14.1056 11.8414 14.1632 11.2452 14.4032 10.7133C14.6432 10.1815 15.0523 9.74379 15.5667 9.46838C16.0811 9.19296 16.6721 9.09522 17.2478 9.19035C17.8236 9.28548 18.3517 9.56815 18.7502 9.99441C19.3426 9.8772 19.9108 9.65988 20.4302 9.35181C20.2327 9.9652 19.8193 10.4861 19.2668 10.8176C19.7916 10.7544 20.304 10.6133 20.7872 10.399C20.4323 10.9309 19.9852 11.395 19.467 11.7696Z" fill="#111111"/>
</g>
<defs>
<clipPath id="clip0">
<rect width="28" height="28" fill="white" transform="translate(0 0.199951)"/>
</clipPath>
</defs>
</svg>
