<svg width="28" height="29" viewBox="0 0 28 29" fill="none" xmlns="http://www.w3.org/2000/svg">
<g clip-path="url(#clip0)">
<circle cx="13.9958" cy="16.3062" r="12.1013" fill="white"/>
<path fill-rule="evenodd" clip-rule="evenodd" d="M0 14.2781C0 21.2385 5.05517 27.0263 11.6667 28.2V18.0885H8.16667V14.2H11.6667V11.0885C11.6667 7.58845 13.9218 5.64478 17.1115 5.64478C18.1218 5.64478 19.2115 5.79995 20.2218 5.95512V9.53328H18.4333C16.7218 9.53328 16.3333 10.3885 16.3333 11.4781V14.2H20.0667L19.4448 18.0885H16.3333V28.2C22.9448 27.0263 28 21.2396 28 14.2781C28 6.53495 21.7 0.199951 14 0.199951C6.3 0.199951 0 6.53495 0 14.2781Z" fill="#111111"/>
</g>
<defs>
<clipPath id="clip0">
<rect width="28" height="28" fill="white" transform="translate(0 0.199951)"/>
</clipPath>
</defs>
</svg>
