<svg width="28" height="29" viewBox="0 0 28 29" fill="none" xmlns="http://www.w3.org/2000/svg">
<circle cx="14" cy="14.2" r="14" fill="#111111"/>
<path d="M15.6836 18.0784C16.531 17.8734 17.3469 17.517 18.0978 17.0157C18.6663 16.6347 18.8383 15.8371 18.4796 15.2311C18.1209 14.6251 17.37 14.4424 16.7994 14.8234C15.0962 15.9619 12.9043 15.9596 11.2011 14.8234C10.6306 14.4424 9.87966 14.6251 9.52098 15.2311C9.1623 15.8349 9.3343 16.6347 9.90274 17.0157C10.6537 17.517 11.4696 17.8734 12.317 18.0784L9.99503 20.547C9.51891 21.0527 9.51891 21.8703 9.99503 22.3761C10.2341 22.6278 10.5446 22.7548 10.855 22.7548C11.1676 22.7548 11.478 22.6278 11.7171 22.3761L14.0013 19.9499L16.2855 22.3761C16.7617 22.8818 17.5315 22.8818 18.0076 22.3761C18.4838 21.8703 18.4838 21.0505 18.0076 20.547L15.6836 18.0784ZM14.0013 8.23315C14.9515 8.23315 15.7234 9.05303 15.7234 10.0623C15.7234 11.0693 14.9515 11.8892 14.0013 11.8892C13.0533 11.8892 12.2792 11.0693 12.2792 10.0623C12.2792 9.05303 13.0533 8.23315 14.0013 8.23315ZM14.0013 14.4758C16.294 14.4758 18.1586 12.4952 18.1586 10.0623C18.1586 7.62492 16.294 5.64429 14.0013 5.64429C11.7087 5.64429 9.84403 7.62492 9.84403 10.0601C9.84403 12.4952 11.7087 14.4758 14.0013 14.4758Z" fill="white"/>
</svg>
