<svg width="28" height="29" viewBox="0 0 28 29" fill="none" xmlns="http://www.w3.org/2000/svg">
<g clip-path="url(#clip0)">
<circle cx="14.4961" cy="14.7" r="9.5" fill="white"/>
<path d="M14 0.637451C6.50738 0.637451 0.4375 6.7082 0.4375 14.2C0.4375 21.6917 6.50825 27.7625 14 27.7625C21.4926 27.7625 27.5625 21.6917 27.5625 14.2C27.5625 6.7082 21.4918 0.637451 14 0.637451ZM20.6614 9.92908L18.4354 20.4186C18.2709 21.1623 17.8281 21.3426 17.2104 20.9926L13.8197 18.4936L12.1844 20.0686C12.0041 20.2488 11.851 20.402 11.501 20.402L11.7416 16.951L18.025 11.274C18.2989 11.0333 17.9646 10.8968 17.6033 11.1375L9.83763 16.0261L6.49075 14.9813C5.76363 14.7521 5.747 14.2542 6.64388 13.9042L19.7199 8.86158C20.3271 8.64283 20.8574 9.00945 20.6605 9.9282L20.6614 9.92908Z" fill="#111111"/>
</g>
<defs>
<clipPath id="clip0">
<rect width="28" height="28" fill="white" transform="translate(0 0.199951)"/>
</clipPath>
</defs>
</svg>
