<svg width="28" height="29" viewBox="0 0 28 29" fill="none" xmlns="http://www.w3.org/2000/svg">
<g clip-path="url(#clip0)">
<circle cx="14.4961" cy="14.7" r="9.5" fill="white"/>
<path d="M16.2442 13.9662L13.0998 12.499C12.8254 12.3716 12.6 12.5144 12.6 12.8182V15.5818C12.6 15.8856 12.8254 16.0284 13.0998 15.901L16.2428 14.4338C16.5186 14.305 16.5186 14.095 16.2442 13.9662ZM14 0.76001C6.5772 0.76001 0.559998 6.77721 0.559998 14.2C0.559998 21.6228 6.5772 27.64 14 27.64C21.4228 27.64 27.44 21.6228 27.44 14.2C27.44 6.77721 21.4228 0.76001 14 0.76001ZM14 19.66C7.1204 19.66 7 19.0398 7 14.2C7 9.36021 7.1204 8.74001 14 8.74001C20.8796 8.74001 21 9.36021 21 14.2C21 19.0398 20.8796 19.66 14 19.66Z" fill="#111111"/>
</g>
<defs>
<clipPath id="clip0">
<rect width="28" height="28" fill="white" transform="translate(0 0.199951)"/>
</clipPath>
</defs>
</svg>
