<svg width="196" height="55" viewBox="0 0 196 55" fill="none" xmlns="http://www.w3.org/2000/svg">
<rect width="196" height="54.4" rx="4" fill="#111111"/>
<g clip-path="url(#clip0)">
<path d="M38.8724 25.844L23.3542 12.013L43.0979 22.088L38.8724 25.844ZM19.3053 11.2C18.3907 11.625 17.7798 12.4 17.7798 13.406V40.987C17.7798 41.993 18.3918 42.768 19.3053 43.193L37.348 27.193L19.3053 11.2ZM49.201 25.3L45.0599 23.169L40.4407 27.2L45.0599 31.231L49.2854 29.1C50.551 28.207 50.551 26.194 49.201 25.3ZM23.3553 42.388L43.099 32.313L38.8735 28.557L23.3553 42.388Z" fill="white"/>
</g>
<path d="M64.384 20.476V18.196C64.736 18.172 65.016 18.088 65.224 17.944C65.432 17.8 65.62 17.496 65.788 17.032C65.964 16.568 66.108 15.896 66.22 15.016L66.712 10.996H71.608V18.112H72.34V20.476H71.344V19H65.38V20.476H64.384ZM67.204 15.088C67.02 16.632 66.612 17.64 65.98 18.112H70.612V11.884H67.6L67.204 15.088ZM78.5799 18.268C78.0599 18.852 77.3679 19.144 76.5039 19.144C75.6399 19.144 74.9439 18.852 74.4159 18.268C73.8959 17.684 73.6359 16.96 73.6359 16.096C73.6359 15.232 73.8959 14.512 74.4159 13.936C74.9439 13.352 75.6399 13.06 76.5039 13.06C77.3679 13.06 78.0599 13.352 78.5799 13.936C79.1079 14.512 79.3719 15.232 79.3719 16.096C79.3719 16.96 79.1079 17.684 78.5799 18.268ZM75.0879 17.692C75.4399 18.124 75.9119 18.34 76.5039 18.34C77.0959 18.34 77.5639 18.124 77.9079 17.692C78.2519 17.252 78.4239 16.72 78.4239 16.096C78.4239 15.472 78.2519 14.944 77.9079 14.512C77.5639 14.08 77.0959 13.864 76.5039 13.864C75.9119 13.864 75.4399 14.084 75.0879 14.524C74.7439 14.956 74.5719 15.48 74.5719 16.096C74.5719 16.72 74.7439 17.252 75.0879 17.692ZM83.7951 19.144C82.9391 19.144 82.2431 18.856 81.7071 18.28C81.1711 17.696 80.9031 16.968 80.9031 16.096C80.9031 15.224 81.1711 14.5 81.7071 13.924C82.2431 13.348 82.9391 13.06 83.7951 13.06C84.6911 13.06 85.3991 13.396 85.9191 14.068L85.3191 14.62C84.9511 14.116 84.4591 13.864 83.8431 13.864C83.2351 13.864 82.7471 14.072 82.3791 14.488C82.0191 14.904 81.8391 15.44 81.8391 16.096C81.8391 16.752 82.0191 17.292 82.3791 17.716C82.7471 18.132 83.2351 18.34 83.8431 18.34C84.4511 18.34 84.9431 18.088 85.3191 17.584L85.9191 18.136C85.3991 18.808 84.6911 19.144 83.7951 19.144ZM89.5365 19H88.6365V13.996H86.9565V13.204H91.2285V13.996H89.5365V19ZM92.4846 21.268L92.6286 20.452C92.7726 20.516 92.9366 20.548 93.1206 20.548C93.3286 20.548 93.5006 20.504 93.6366 20.416C93.7726 20.328 93.8886 20.168 93.9846 19.936L94.3686 19.06L91.9446 13.204H92.9166L94.8486 17.956L96.7686 13.204H97.7526L94.8486 20.176C94.5286 20.944 93.9606 21.336 93.1446 21.352C92.9046 21.352 92.6846 21.324 92.4846 21.268ZM103.915 19H103.015V13.996H99.9914V19H99.0914V13.204H103.915V19ZM107.013 19H106.113V13.204H107.013V15.616H110.037V13.204H110.937V19H110.037V16.408H107.013V19ZM117.742 18.268C117.222 18.852 116.53 19.144 115.666 19.144C114.802 19.144 114.106 18.852 113.578 18.268C113.058 17.684 112.798 16.96 112.798 16.096C112.798 15.232 113.058 14.512 113.578 13.936C114.106 13.352 114.802 13.06 115.666 13.06C116.53 13.06 117.222 13.352 117.742 13.936C118.27 14.512 118.534 15.232 118.534 16.096C118.534 16.96 118.27 17.684 117.742 18.268ZM114.25 17.692C114.602 18.124 115.074 18.34 115.666 18.34C116.258 18.34 116.726 18.124 117.07 17.692C117.414 17.252 117.586 16.72 117.586 16.096C117.586 15.472 117.414 14.944 117.07 14.512C116.726 14.08 116.258 13.864 115.666 13.864C115.074 13.864 114.602 14.084 114.25 14.524C113.906 14.956 113.734 15.48 113.734 16.096C113.734 16.72 113.906 17.252 114.25 17.692ZM127.147 19H123.895V13.204H127.087C127.591 13.204 127.987 13.34 128.275 13.612C128.571 13.884 128.719 14.244 128.719 14.692C128.719 15.02 128.627 15.304 128.443 15.544C128.267 15.776 128.047 15.932 127.783 16.012C128.079 16.084 128.327 16.256 128.527 16.528C128.735 16.8 128.839 17.1 128.839 17.428C128.839 17.9 128.687 18.28 128.383 18.568C128.087 18.856 127.675 19 127.147 19ZM126.967 18.208C127.255 18.208 127.483 18.128 127.651 17.968C127.819 17.808 127.903 17.592 127.903 17.32C127.903 17.072 127.819 16.86 127.651 16.684C127.483 16.508 127.255 16.42 126.967 16.42H124.795V18.208H126.967ZM126.931 15.628C127.203 15.628 127.415 15.556 127.567 15.412C127.719 15.26 127.795 15.064 127.795 14.824C127.795 14.568 127.719 14.368 127.567 14.224C127.415 14.072 127.203 13.996 126.931 13.996H124.795V15.628H126.931Z" fill="#BDBDBD"/>
<path d="M71.4 41.4999C70.4533 41.4999 69.5733 41.3066 68.76 40.9199C67.96 40.5332 67.2533 39.9999 66.64 39.3199C66.04 38.6399 65.5667 37.8666 65.22 36.9999C64.8867 36.1332 64.72 35.2132 64.72 34.2399C64.72 33.2799 64.8867 32.3732 65.22 31.5199C65.5533 30.6532 66.0267 29.8932 66.64 29.2399C67.2533 28.5732 67.9667 28.0532 68.78 27.6799C69.6067 27.2932 70.5067 27.0999 71.48 27.0999C72.8267 27.0999 73.96 27.3866 74.88 27.9599C75.8 28.5199 76.5 29.2666 76.98 30.1999L75.26 31.4399C74.8733 30.6666 74.34 30.0866 73.66 29.6999C72.98 29.3132 72.2333 29.1199 71.42 29.1199C70.5267 29.1199 69.7467 29.3666 69.08 29.8599C68.4133 30.3399 67.9 30.9732 67.54 31.7599C67.18 32.5466 67 33.3932 67 34.2999C67 35.2599 67.2 36.1332 67.6 36.9199C68 37.6932 68.54 38.3132 69.22 38.7799C69.9133 39.2466 70.7 39.4799 71.58 39.4799C73.0467 39.4799 74.3667 38.7799 75.54 37.3799V35.8799H72.56V34.2199H77.42V41.3999H75.54V39.6399C74.3533 40.8799 72.9733 41.4999 71.4 41.4999ZM84.545 41.5999C83.4517 41.5999 82.4983 41.3532 81.685 40.8599C80.885 40.3532 80.265 39.6932 79.825 38.8799C79.385 38.0532 79.165 37.1532 79.165 36.1799C79.165 35.2066 79.385 34.3132 79.825 33.4999C80.2783 32.6732 80.905 32.0132 81.705 31.5199C82.5183 31.0132 83.465 30.7599 84.545 30.7599C85.625 30.7599 86.565 31.0132 87.365 31.5199C88.1783 32.0132 88.805 32.6732 89.245 33.4999C89.6983 34.3132 89.925 35.2066 89.925 36.1799C89.925 37.1532 89.705 38.0532 89.265 38.8799C88.825 39.6932 88.1983 40.3532 87.385 40.8599C86.585 41.3532 85.6383 41.5999 84.545 41.5999ZM81.425 36.1999C81.425 36.8666 81.565 37.4666 81.845 37.9999C82.125 38.5332 82.4983 38.9532 82.965 39.2599C83.4317 39.5666 83.9583 39.7199 84.545 39.7199C85.1183 39.7199 85.6383 39.5666 86.105 39.2599C86.585 38.9399 86.965 38.5132 87.245 37.9799C87.525 37.4466 87.665 36.8466 87.665 36.1799C87.665 35.5132 87.525 34.9132 87.245 34.3799C86.965 33.8466 86.585 33.4266 86.105 33.1199C85.6383 32.7999 85.1183 32.6399 84.545 32.6399C83.9717 32.6399 83.445 32.7999 82.965 33.1199C82.4983 33.4266 82.125 33.8532 81.845 34.3999C81.565 34.9332 81.425 35.5332 81.425 36.1999ZM96.7262 41.5999C95.6329 41.5999 94.6796 41.3532 93.8662 40.8599C93.0662 40.3532 92.4462 39.6932 92.0062 38.8799C91.5662 38.0532 91.3462 37.1532 91.3462 36.1799C91.3462 35.2066 91.5662 34.3132 92.0062 33.4999C92.4596 32.6732 93.0862 32.0132 93.8862 31.5199C94.6996 31.0132 95.6462 30.7599 96.7262 30.7599C97.8062 30.7599 98.7462 31.0132 99.5462 31.5199C100.36 32.0132 100.986 32.6732 101.426 33.4999C101.88 34.3132 102.106 35.2066 102.106 36.1799C102.106 37.1532 101.886 38.0532 101.446 38.8799C101.006 39.6932 100.38 40.3532 99.5662 40.8599C98.7662 41.3532 97.8196 41.5999 96.7262 41.5999ZM93.6062 36.1999C93.6062 36.8666 93.7462 37.4666 94.0262 37.9999C94.3062 38.5332 94.6796 38.9532 95.1462 39.2599C95.6129 39.5666 96.1396 39.7199 96.7262 39.7199C97.2996 39.7199 97.8196 39.5666 98.2862 39.2599C98.7662 38.9399 99.1462 38.5132 99.4262 37.9799C99.7062 37.4466 99.8462 36.8466 99.8462 36.1799C99.8462 35.5132 99.7062 34.9132 99.4262 34.3799C99.1462 33.8466 98.7662 33.4266 98.2862 33.1199C97.8196 32.7999 97.2996 32.6399 96.7262 32.6399C96.1529 32.6399 95.6262 32.7999 95.1462 33.1199C94.6796 33.4266 94.3062 33.8532 94.0262 34.3999C93.7462 34.9332 93.6062 35.5332 93.6062 36.1999ZM108.348 41.4999C107.401 41.4999 106.568 41.2532 105.848 40.7599C105.141 40.2666 104.581 39.6199 104.168 38.8199C103.768 38.0066 103.568 37.1266 103.568 36.1799C103.568 35.1932 103.774 34.2866 104.188 33.4599C104.601 32.6332 105.168 31.9799 105.888 31.4999C106.621 31.0066 107.468 30.7599 108.428 30.7599C109.268 30.7599 110.001 30.9599 110.628 31.3599C111.268 31.7599 111.794 32.2799 112.208 32.9199V30.9399H114.148V41.0999C114.148 42.1132 113.901 42.9732 113.408 43.6799C112.928 44.3866 112.268 44.9266 111.428 45.2999C110.588 45.6732 109.641 45.8599 108.588 45.8599C107.428 45.8599 106.461 45.6599 105.688 45.2599C104.928 44.8599 104.288 44.3132 103.768 43.6199L105.008 42.4599C105.408 43.0199 105.921 43.4466 106.548 43.7399C107.188 44.0332 107.868 44.1799 108.588 44.1799C109.188 44.1799 109.741 44.0666 110.248 43.8399C110.768 43.6266 111.181 43.2932 111.488 42.8399C111.794 42.3866 111.948 41.8066 111.948 41.0999V39.4999C111.574 40.1266 111.061 40.6199 110.408 40.9799C109.754 41.3266 109.068 41.4999 108.348 41.4999ZM109.068 39.7199C109.508 39.7199 109.928 39.6266 110.328 39.4399C110.728 39.2399 111.068 38.9799 111.348 38.6599C111.641 38.3399 111.841 37.9999 111.948 37.6399V34.8999C111.681 34.2332 111.261 33.6932 110.688 33.2799C110.128 32.8532 109.534 32.6399 108.908 32.6399C108.268 32.6399 107.714 32.8132 107.248 33.1599C106.794 33.5066 106.441 33.9599 106.188 34.5199C105.934 35.0666 105.808 35.6399 105.808 36.2399C105.808 36.8799 105.948 37.4666 106.228 37.9999C106.521 38.5199 106.914 38.9399 107.408 39.2599C107.901 39.5666 108.454 39.7199 109.068 39.7199ZM116.956 26.7999H119.156V38.3799C119.156 38.9132 119.236 39.2532 119.396 39.3999C119.556 39.5466 119.756 39.6199 119.996 39.6199C120.262 39.6199 120.516 39.5932 120.756 39.5399C120.996 39.4866 121.196 39.4199 121.356 39.3399L121.676 41.0799C121.356 41.2132 120.976 41.3266 120.536 41.4199C120.096 41.5132 119.702 41.5599 119.356 41.5599C118.609 41.5599 118.022 41.3532 117.596 40.9399C117.169 40.5132 116.956 39.9266 116.956 39.1799V26.7999ZM127.841 41.5999C126.761 41.5999 125.815 41.3532 125.001 40.8599C124.188 40.3666 123.555 39.7132 123.101 38.8999C122.648 38.0732 122.421 37.1732 122.421 36.1999C122.421 35.2132 122.648 34.3066 123.101 33.4799C123.555 32.6532 124.188 31.9932 125.001 31.4999C125.815 31.0066 126.768 30.7599 127.861 30.7599C128.955 30.7599 129.901 31.0132 130.701 31.5199C131.501 32.0132 132.115 32.6666 132.541 33.4799C132.981 34.2932 133.201 35.1666 133.201 36.0999C133.201 36.4332 133.181 36.6999 133.141 36.8999H124.761C124.801 37.5132 124.968 38.0532 125.261 38.5199C125.568 38.9732 125.948 39.3332 126.401 39.5999C126.868 39.8532 127.375 39.9799 127.921 39.9799C128.508 39.9799 129.061 39.8332 129.581 39.5399C130.101 39.2466 130.461 38.8599 130.661 38.3799L132.541 38.9199C132.181 39.7066 131.581 40.3532 130.741 40.8599C129.915 41.3532 128.948 41.5999 127.841 41.5999ZM124.701 35.4399H131.021C130.968 34.8399 130.795 34.3132 130.501 33.8599C130.208 33.3932 129.828 33.0332 129.361 32.7799C128.908 32.5132 128.401 32.3799 127.841 32.3799C127.295 32.3799 126.788 32.5132 126.321 32.7799C125.868 33.0332 125.495 33.3932 125.201 33.8599C124.908 34.3132 124.741 34.8399 124.701 35.4399ZM140.517 41.3999V27.1999H146.477C147.117 27.1999 147.704 27.3332 148.237 27.5999C148.784 27.8666 149.251 28.2199 149.637 28.6599C150.037 29.0999 150.344 29.5932 150.557 30.1399C150.771 30.6866 150.877 31.2466 150.877 31.8199C150.877 32.6199 150.697 33.3732 150.337 34.0799C149.977 34.7866 149.477 35.3599 148.837 35.7999C148.197 36.2399 147.451 36.4599 146.597 36.4599H142.757V41.3999H140.517ZM142.757 34.4799H146.457C147.084 34.4799 147.597 34.2266 147.997 33.7199C148.397 33.2132 148.597 32.5799 148.597 31.8199C148.597 31.2999 148.491 30.8466 148.277 30.4599C148.064 30.0599 147.784 29.7466 147.437 29.5199C147.104 29.2932 146.737 29.1799 146.337 29.1799H142.757V34.4799ZM152.868 26.7999H155.068V38.3799C155.068 38.9132 155.148 39.2532 155.308 39.3999C155.468 39.5466 155.668 39.6199 155.908 39.6199C156.175 39.6199 156.428 39.5932 156.668 39.5399C156.908 39.4866 157.108 39.4199 157.268 39.3399L157.588 41.0799C157.268 41.2132 156.888 41.3266 156.448 41.4199C156.008 41.5132 155.615 41.5599 155.268 41.5599C154.521 41.5599 153.935 41.3532 153.508 40.9399C153.081 40.5132 152.868 39.9266 152.868 39.1799V26.7999ZM158.254 38.3399C158.254 37.6732 158.44 37.0932 158.814 36.5999C159.187 36.0932 159.707 35.7066 160.374 35.4399C161.054 35.1599 161.834 35.0199 162.714 35.0199C163.18 35.0199 163.654 35.0599 164.134 35.1399C164.627 35.2066 165.06 35.3066 165.434 35.4399V34.7799C165.434 34.0466 165.214 33.4732 164.774 33.0599C164.334 32.6466 163.7 32.4399 162.874 32.4399C162.3 32.4399 161.747 32.5399 161.214 32.7399C160.68 32.9399 160.127 33.2332 159.554 33.6199L158.814 32.1399C159.507 31.6866 160.2 31.3466 160.894 31.1199C161.6 30.8799 162.34 30.7599 163.114 30.7599C164.514 30.7599 165.614 31.1332 166.414 31.8799C167.227 32.6132 167.634 33.6599 167.634 35.0199V38.9199C167.634 39.1732 167.674 39.3532 167.754 39.4599C167.847 39.5666 168 39.6266 168.214 39.6399V41.3999C168.014 41.4399 167.834 41.4666 167.674 41.4799C167.514 41.4932 167.38 41.4999 167.274 41.4999C166.794 41.4999 166.434 41.3866 166.194 41.1599C165.967 40.9199 165.834 40.6532 165.794 40.3599L165.734 39.7599C165.28 40.3466 164.7 40.7999 163.994 41.1199C163.287 41.4399 162.574 41.5999 161.854 41.5999C161.16 41.5999 160.54 41.4599 159.994 41.1799C159.447 40.8866 159.02 40.4932 158.714 39.9999C158.407 39.5066 158.254 38.9532 158.254 38.3399ZM164.914 38.9799C165.26 38.6332 165.434 38.3066 165.434 37.9999V36.7999C164.647 36.5066 163.847 36.3599 163.034 36.3599C162.234 36.3599 161.58 36.5266 161.074 36.8599C160.58 37.1799 160.334 37.6132 160.334 38.1599C160.334 38.6132 160.514 39.0332 160.874 39.4199C161.247 39.7932 161.78 39.9799 162.474 39.9799C162.94 39.9799 163.394 39.8866 163.834 39.6999C164.274 39.5132 164.634 39.2732 164.914 38.9799ZM170.442 43.8599C170.642 43.8999 170.835 43.9332 171.022 43.9599C171.222 43.9866 171.382 43.9999 171.502 43.9999C171.728 43.9999 171.922 43.9266 172.082 43.7799C172.255 43.6466 172.428 43.3932 172.602 43.0199C172.775 42.6466 172.988 42.1066 173.242 41.3999L168.942 30.9399H171.242L174.442 39.1599L177.282 30.9399H179.402L174.662 43.8199C174.448 44.4066 174.075 44.9066 173.542 45.3199C173.022 45.7332 172.348 45.9399 171.522 45.9399C171.362 45.9399 171.195 45.9266 171.022 45.8999C170.848 45.8732 170.655 45.8332 170.442 45.7799V43.8599Z" fill="white"/>
<defs>
<clipPath id="clip0">
<rect width="36" height="32" fill="white" transform="translate(16 11.2)"/>
</clipPath>
</defs>
</svg>
