<svg width="196" height="54" viewBox="0 0 196 54" fill="none" xmlns="http://www.w3.org/2000/svg">
<rect width="196" height="54" rx="4" fill="#111111"/>
<path d="M38.8724 25.644L23.3542 11.813L43.0979 21.888L38.8724 25.644ZM19.3053 11C18.3907 11.425 17.7798 12.2 17.7798 13.206V40.787C17.7798 41.793 18.3918 42.568 19.3053 42.993L37.348 26.993L19.3053 11ZM49.201 25.1L45.0599 22.969L40.4407 27L45.0599 31.031L49.2854 28.9C50.551 28.007 50.551 25.994 49.201 25.1V25.1ZM23.3553 42.188L43.099 32.113L38.8735 28.357L23.3553 42.188Z" fill="white"/>
<path d="M68.836 11.26C67.916 11.26 67.192 11.568 66.664 12.184C66.136 12.8 65.872 13.644 65.872 14.716C65.872 15.78 66.116 16.624 66.604 17.248C67.1 17.864 67.84 18.172 68.824 18.172C69.2 18.172 69.556 18.14 69.892 18.076C70.228 18.012 70.556 17.932 70.876 17.836V18.772C70.556 18.892 70.224 18.98 69.88 19.036C69.544 19.092 69.14 19.12 68.668 19.12C67.796 19.12 67.068 18.94 66.484 18.58C65.9 18.22 65.46 17.708 65.164 17.044C64.876 16.38 64.732 15.6 64.732 14.704C64.732 13.84 64.888 13.08 65.2 12.424C65.52 11.76 65.988 11.244 66.604 10.876C67.22 10.5 67.968 10.312 68.848 10.312C69.752 10.312 70.54 10.48 71.212 10.816L70.78 11.728C70.516 11.608 70.22 11.5 69.892 11.404C69.572 11.308 69.22 11.26 68.836 11.26ZM76.806 12.568H77.958L75.21 15.664L78.186 19H76.962L74.058 15.736V19H73.002V12.568H74.058V15.688L76.806 12.568ZM85.1112 15.772C85.1112 16.836 84.8392 17.66 84.2952 18.244C83.7592 18.828 83.0312 19.12 82.1112 19.12C81.5432 19.12 81.0352 18.992 80.5872 18.736C80.1472 18.472 79.7992 18.092 79.5432 17.596C79.2872 17.092 79.1592 16.484 79.1592 15.772C79.1592 14.708 79.4272 13.888 79.9632 13.312C80.4992 12.736 81.2272 12.448 82.1472 12.448C82.7312 12.448 83.2432 12.58 83.6832 12.844C84.1312 13.1 84.4792 13.476 84.7272 13.972C84.9832 14.46 85.1112 15.06 85.1112 15.772ZM80.2512 15.772C80.2512 16.532 80.3992 17.136 80.6952 17.584C80.9992 18.024 81.4792 18.244 82.1352 18.244C82.7832 18.244 83.2592 18.024 83.5632 17.584C83.8672 17.136 84.0192 16.532 84.0192 15.772C84.0192 15.012 83.8672 14.416 83.5632 13.984C83.2592 13.552 82.7792 13.336 82.1232 13.336C81.4672 13.336 80.9912 13.552 80.6952 13.984C80.3992 14.416 80.2512 15.012 80.2512 15.772ZM90.2448 12.448C91.0368 12.448 91.6728 12.724 92.1528 13.276C92.6408 13.828 92.8848 14.66 92.8848 15.772C92.8848 16.868 92.6408 17.7 92.1528 18.268C91.6728 18.836 91.0328 19.12 90.2328 19.12C89.7368 19.12 89.3248 19.028 88.9968 18.844C88.6768 18.652 88.4248 18.432 88.2408 18.184H88.1688C88.1848 18.32 88.2008 18.492 88.2168 18.7C88.2328 18.908 88.2408 19.088 88.2408 19.24V21.88H87.1848V12.568H88.0488L88.1928 13.444H88.2408C88.4328 13.164 88.6848 12.928 88.9968 12.736C89.3088 12.544 89.7248 12.448 90.2448 12.448ZM90.0528 13.336C89.3968 13.336 88.9328 13.52 88.6608 13.888C88.3968 14.256 88.2568 14.816 88.2408 15.568V15.772C88.2408 16.564 88.3688 17.176 88.6248 17.608C88.8888 18.032 89.3728 18.244 90.0768 18.244C90.4688 18.244 90.7888 18.136 91.0368 17.92C91.2928 17.704 91.4808 17.412 91.6008 17.044C91.7288 16.668 91.7928 16.24 91.7928 15.76C91.7928 15.024 91.6488 14.436 91.3608 13.996C91.0808 13.556 90.6448 13.336 90.0528 13.336ZM100.56 15.772C100.56 16.836 100.288 17.66 99.7437 18.244C99.2077 18.828 98.4797 19.12 97.5597 19.12C96.9917 19.12 96.4837 18.992 96.0357 18.736C95.5957 18.472 95.2477 18.092 94.9917 17.596C94.7357 17.092 94.6077 16.484 94.6077 15.772C94.6077 14.708 94.8757 13.888 95.4117 13.312C95.9477 12.736 96.6757 12.448 97.5957 12.448C98.1797 12.448 98.6917 12.58 99.1317 12.844C99.5797 13.1 99.9277 13.476 100.176 13.972C100.432 14.46 100.56 15.06 100.56 15.772ZM95.6997 15.772C95.6997 16.532 95.8477 17.136 96.1437 17.584C96.4477 18.024 96.9277 18.244 97.5837 18.244C98.2317 18.244 98.7077 18.024 99.0117 17.584C99.3157 17.136 99.4677 16.532 99.4677 15.772C99.4677 15.012 99.3157 14.416 99.0117 13.984C98.7077 13.552 98.2277 13.336 97.5717 13.336C96.9157 13.336 96.4397 13.552 96.1437 13.984C95.8477 14.416 95.6997 15.012 95.6997 15.772ZM110.971 14.188C110.971 14.588 110.851 14.9 110.611 15.124C110.371 15.348 110.063 15.5 109.687 15.58V15.628C110.087 15.684 110.435 15.828 110.731 16.06C111.027 16.284 111.175 16.636 111.175 17.116C111.175 17.66 110.971 18.112 110.563 18.472C110.163 18.824 109.499 19 108.571 19H105.799V12.568H108.559C109.015 12.568 109.423 12.62 109.783 12.724C110.151 12.82 110.439 12.988 110.647 13.228C110.863 13.46 110.971 13.78 110.971 14.188ZM109.903 14.32C109.903 14.016 109.791 13.796 109.567 13.66C109.351 13.516 108.995 13.444 108.499 13.444H106.855V15.208H108.307C109.371 15.208 109.903 14.912 109.903 14.32ZM110.083 17.116C110.083 16.748 109.943 16.484 109.663 16.324C109.383 16.164 108.971 16.084 108.427 16.084H106.855V18.148H108.451C108.979 18.148 109.383 18.072 109.663 17.92C109.943 17.76 110.083 17.492 110.083 17.116Z" fill="#BDBDBD"/>
<path d="M71.4 41.1C70.4533 41.1 69.5733 40.9067 68.76 40.52C67.96 40.1333 67.2533 39.6 66.64 38.92C66.04 38.24 65.5667 37.4667 65.22 36.6C64.8867 35.7333 64.72 34.8133 64.72 33.84C64.72 32.88 64.8867 31.9733 65.22 31.12C65.5533 30.2533 66.0267 29.4933 66.64 28.84C67.2533 28.1733 67.9667 27.6533 68.78 27.28C69.6067 26.8933 70.5067 26.7 71.48 26.7C72.8267 26.7 73.96 26.9867 74.88 27.56C75.8 28.12 76.5 28.8667 76.98 29.8L75.26 31.04C74.8733 30.2667 74.34 29.6867 73.66 29.3C72.98 28.9133 72.2333 28.72 71.42 28.72C70.5267 28.72 69.7467 28.9667 69.08 29.46C68.4133 29.94 67.9 30.5733 67.54 31.36C67.18 32.1467 67 32.9933 67 33.9C67 34.86 67.2 35.7333 67.6 36.52C68 37.2933 68.54 37.9133 69.22 38.38C69.9133 38.8467 70.7 39.08 71.58 39.08C73.0467 39.08 74.3667 38.38 75.54 36.98V35.48H72.56V33.82H77.42V41H75.54V39.24C74.3533 40.48 72.9733 41.1 71.4 41.1ZM84.545 41.2C83.4517 41.2 82.4983 40.9533 81.685 40.46C80.885 39.9533 80.265 39.2933 79.825 38.48C79.385 37.6533 79.165 36.7533 79.165 35.78C79.165 34.8067 79.385 33.9133 79.825 33.1C80.2783 32.2733 80.905 31.6133 81.705 31.12C82.5183 30.6133 83.465 30.36 84.545 30.36C85.625 30.36 86.565 30.6133 87.365 31.12C88.1783 31.6133 88.805 32.2733 89.245 33.1C89.6983 33.9133 89.925 34.8067 89.925 35.78C89.925 36.7533 89.705 37.6533 89.265 38.48C88.825 39.2933 88.1983 39.9533 87.385 40.46C86.585 40.9533 85.6383 41.2 84.545 41.2ZM81.425 35.8C81.425 36.4667 81.565 37.0667 81.845 37.6C82.125 38.1333 82.4983 38.5533 82.965 38.86C83.4317 39.1667 83.9583 39.32 84.545 39.32C85.1183 39.32 85.6383 39.1667 86.105 38.86C86.585 38.54 86.965 38.1133 87.245 37.58C87.525 37.0467 87.665 36.4467 87.665 35.78C87.665 35.1133 87.525 34.5133 87.245 33.98C86.965 33.4467 86.585 33.0267 86.105 32.72C85.6383 32.4 85.1183 32.24 84.545 32.24C83.9717 32.24 83.445 32.4 82.965 32.72C82.4983 33.0267 82.125 33.4533 81.845 34C81.565 34.5333 81.425 35.1333 81.425 35.8ZM96.7262 41.2C95.6329 41.2 94.6796 40.9533 93.8662 40.46C93.0662 39.9533 92.4462 39.2933 92.0062 38.48C91.5662 37.6533 91.3462 36.7533 91.3462 35.78C91.3462 34.8067 91.5662 33.9133 92.0062 33.1C92.4596 32.2733 93.0862 31.6133 93.8862 31.12C94.6996 30.6133 95.6462 30.36 96.7262 30.36C97.8062 30.36 98.7462 30.6133 99.5462 31.12C100.36 31.6133 100.986 32.2733 101.426 33.1C101.88 33.9133 102.106 34.8067 102.106 35.78C102.106 36.7533 101.886 37.6533 101.446 38.48C101.006 39.2933 100.38 39.9533 99.5662 40.46C98.7662 40.9533 97.8196 41.2 96.7262 41.2ZM93.6062 35.8C93.6062 36.4667 93.7462 37.0667 94.0262 37.6C94.3062 38.1333 94.6796 38.5533 95.1462 38.86C95.6129 39.1667 96.1396 39.32 96.7262 39.32C97.2996 39.32 97.8196 39.1667 98.2862 38.86C98.7662 38.54 99.1462 38.1133 99.4262 37.58C99.7062 37.0467 99.8462 36.4467 99.8462 35.78C99.8462 35.1133 99.7062 34.5133 99.4262 33.98C99.1462 33.4467 98.7662 33.0267 98.2862 32.72C97.8196 32.4 97.2996 32.24 96.7262 32.24C96.1529 32.24 95.6262 32.4 95.1462 32.72C94.6796 33.0267 94.3062 33.4533 94.0262 34C93.7462 34.5333 93.6062 35.1333 93.6062 35.8ZM108.348 41.1C107.401 41.1 106.568 40.8533 105.848 40.36C105.141 39.8667 104.581 39.22 104.168 38.42C103.768 37.6067 103.568 36.7267 103.568 35.78C103.568 34.7933 103.774 33.8867 104.188 33.06C104.601 32.2333 105.168 31.58 105.888 31.1C106.621 30.6067 107.468 30.36 108.428 30.36C109.268 30.36 110.001 30.56 110.628 30.96C111.268 31.36 111.794 31.88 112.208 32.52V30.54H114.148V40.7C114.148 41.7133 113.901 42.5733 113.408 43.28C112.928 43.9867 112.268 44.5267 111.428 44.9C110.588 45.2733 109.641 45.46 108.588 45.46C107.428 45.46 106.461 45.26 105.688 44.86C104.928 44.46 104.288 43.9133 103.768 43.22L105.008 42.06C105.408 42.62 105.921 43.0467 106.548 43.34C107.188 43.6333 107.868 43.78 108.588 43.78C109.188 43.78 109.741 43.6667 110.248 43.44C110.768 43.2267 111.181 42.8933 111.488 42.44C111.794 41.9867 111.948 41.4067 111.948 40.7V39.1C111.574 39.7267 111.061 40.22 110.408 40.58C109.754 40.9267 109.068 41.1 108.348 41.1ZM109.068 39.32C109.508 39.32 109.928 39.2267 110.328 39.04C110.728 38.84 111.068 38.58 111.348 38.26C111.641 37.94 111.841 37.6 111.948 37.24V34.5C111.681 33.8333 111.261 33.2933 110.688 32.88C110.128 32.4533 109.534 32.24 108.908 32.24C108.268 32.24 107.714 32.4133 107.248 32.76C106.794 33.1067 106.441 33.56 106.188 34.12C105.934 34.6667 105.808 35.24 105.808 35.84C105.808 36.48 105.948 37.0667 106.228 37.6C106.521 38.12 106.914 38.54 107.408 38.86C107.901 39.1667 108.454 39.32 109.068 39.32ZM116.956 26.4H119.156V37.98C119.156 38.5133 119.236 38.8533 119.396 39C119.556 39.1467 119.756 39.22 119.996 39.22C120.262 39.22 120.516 39.1933 120.756 39.14C120.996 39.0867 121.196 39.02 121.356 38.94L121.676 40.68C121.356 40.8133 120.976 40.9267 120.536 41.02C120.096 41.1133 119.702 41.16 119.356 41.16C118.609 41.16 118.022 40.9533 117.596 40.54C117.169 40.1133 116.956 39.5267 116.956 38.78V26.4ZM127.841 41.2C126.761 41.2 125.815 40.9533 125.001 40.46C124.188 39.9667 123.555 39.3133 123.101 38.5C122.648 37.6733 122.421 36.7733 122.421 35.8C122.421 34.8133 122.648 33.9067 123.101 33.08C123.555 32.2533 124.188 31.5933 125.001 31.1C125.815 30.6067 126.768 30.36 127.861 30.36C128.955 30.36 129.901 30.6133 130.701 31.12C131.501 31.6133 132.115 32.2667 132.541 33.08C132.981 33.8933 133.201 34.7667 133.201 35.7C133.201 36.0333 133.181 36.3 133.141 36.5H124.761C124.801 37.1133 124.968 37.6533 125.261 38.12C125.568 38.5733 125.948 38.9333 126.401 39.2C126.868 39.4533 127.375 39.58 127.921 39.58C128.508 39.58 129.061 39.4333 129.581 39.14C130.101 38.8467 130.461 38.46 130.661 37.98L132.541 38.52C132.181 39.3067 131.581 39.9533 130.741 40.46C129.915 40.9533 128.948 41.2 127.841 41.2ZM124.701 35.04H131.021C130.968 34.44 130.795 33.9133 130.501 33.46C130.208 32.9933 129.828 32.6333 129.361 32.38C128.908 32.1133 128.401 31.98 127.841 31.98C127.295 31.98 126.788 32.1133 126.321 32.38C125.868 32.6333 125.495 32.9933 125.201 33.46C124.908 33.9133 124.741 34.44 124.701 35.04ZM140.517 41V26.8H146.477C147.117 26.8 147.704 26.9333 148.237 27.2C148.784 27.4667 149.251 27.82 149.637 28.26C150.037 28.7 150.344 29.1933 150.557 29.74C150.771 30.2867 150.877 30.8467 150.877 31.42C150.877 32.22 150.697 32.9733 150.337 33.68C149.977 34.3867 149.477 34.96 148.837 35.4C148.197 35.84 147.451 36.06 146.597 36.06H142.757V41H140.517ZM142.757 34.08H146.457C147.084 34.08 147.597 33.8267 147.997 33.32C148.397 32.8133 148.597 32.18 148.597 31.42C148.597 30.9 148.491 30.4467 148.277 30.06C148.064 29.66 147.784 29.3467 147.437 29.12C147.104 28.8933 146.737 28.78 146.337 28.78H142.757V34.08ZM152.868 26.4H155.068V37.98C155.068 38.5133 155.148 38.8533 155.308 39C155.468 39.1467 155.668 39.22 155.908 39.22C156.175 39.22 156.428 39.1933 156.668 39.14C156.908 39.0867 157.108 39.02 157.268 38.94L157.588 40.68C157.268 40.8133 156.888 40.9267 156.448 41.02C156.008 41.1133 155.615 41.16 155.268 41.16C154.521 41.16 153.935 40.9533 153.508 40.54C153.081 40.1133 152.868 39.5267 152.868 38.78V26.4ZM158.254 37.94C158.254 37.2733 158.44 36.6933 158.814 36.2C159.187 35.6933 159.707 35.3067 160.374 35.04C161.054 34.76 161.834 34.62 162.714 34.62C163.18 34.62 163.654 34.66 164.134 34.74C164.627 34.8067 165.06 34.9067 165.434 35.04V34.38C165.434 33.6467 165.214 33.0733 164.774 32.66C164.334 32.2467 163.7 32.04 162.874 32.04C162.3 32.04 161.747 32.14 161.214 32.34C160.68 32.54 160.127 32.8333 159.554 33.22L158.814 31.74C159.507 31.2867 160.2 30.9467 160.894 30.72C161.6 30.48 162.34 30.36 163.114 30.36C164.514 30.36 165.614 30.7333 166.414 31.48C167.227 32.2133 167.634 33.26 167.634 34.62V38.52C167.634 38.7733 167.674 38.9533 167.754 39.06C167.847 39.1667 168 39.2267 168.214 39.24V41C168.014 41.04 167.834 41.0667 167.674 41.08C167.514 41.0933 167.38 41.1 167.274 41.1C166.794 41.1 166.434 40.9867 166.194 40.76C165.967 40.52 165.834 40.2533 165.794 39.96L165.734 39.36C165.28 39.9467 164.7 40.4 163.994 40.72C163.287 41.04 162.574 41.2 161.854 41.2C161.16 41.2 160.54 41.06 159.994 40.78C159.447 40.4867 159.02 40.0933 158.714 39.6C158.407 39.1067 158.254 38.5533 158.254 37.94ZM164.914 38.58C165.26 38.2333 165.434 37.9067 165.434 37.6V36.4C164.647 36.1067 163.847 35.96 163.034 35.96C162.234 35.96 161.58 36.1267 161.074 36.46C160.58 36.78 160.334 37.2133 160.334 37.76C160.334 38.2133 160.514 38.6333 160.874 39.02C161.247 39.3933 161.78 39.58 162.474 39.58C162.94 39.58 163.394 39.4867 163.834 39.3C164.274 39.1133 164.634 38.8733 164.914 38.58ZM170.442 43.46C170.642 43.5 170.835 43.5333 171.022 43.56C171.222 43.5867 171.382 43.6 171.502 43.6C171.728 43.6 171.922 43.5267 172.082 43.38C172.255 43.2467 172.428 42.9933 172.602 42.62C172.775 42.2467 172.988 41.7067 173.242 41L168.942 30.54H171.242L174.442 38.76L177.282 30.54H179.402L174.662 43.42C174.448 44.0067 174.075 44.5067 173.542 44.92C173.022 45.3333 172.348 45.54 171.522 45.54C171.362 45.54 171.195 45.5267 171.022 45.5C170.848 45.4733 170.655 45.4333 170.442 45.38V43.46Z" fill="white"/>
</svg>
