<svg width="22" height="18" viewBox="0 0 22 18" fill="none" xmlns="http://www.w3.org/2000/svg">
<path d="M18.66 0.989922C16.02 -0.810078 12.76 0.0299218 11 2.08992C9.24 0.0299218 5.98 -0.820078 3.34 0.989922C1.94 1.94992 1.06 3.56992 1 5.27992C0.86 9.15992 4.3 12.2699 9.55 17.0399L9.65 17.1299C10.41 17.8199 11.58 17.8199 12.34 17.1199L12.45 17.0199C17.7 12.2599 21.13 9.14992 21 5.26992C20.94 3.56992 20.06 1.94992 18.66 0.989922ZM11.1 15.5499L11 15.6499L10.9 15.5499C6.14 11.2399 3 8.38992 3 5.49992C3 3.49992 4.5 1.99992 6.5 1.99992C8.04 1.99992 9.54 2.98992 10.07 4.35992H11.94C12.46 2.98992 13.96 1.99992 15.5 1.99992C17.5 1.99992 19 3.49992 19 5.49992C19 8.38992 15.86 11.2399 11.1 15.5499Z" fill="white"/>
</svg>
