<svg width="28" height="28" viewBox="0 0 28 28" fill="none" xmlns="http://www.w3.org/2000/svg">
<rect y="0.000976562" width="28" height="27.9984" rx="13.9992" fill="#EF225D"/>
<path fill-rule="evenodd" clip-rule="evenodd" d="M15.3388 6.05877C15.2786 6.09112 14.1436 7.20625 12.8166 8.53681L10.4038 10.9561L10.274 11.222C9.88334 12.0224 10.0115 12.789 10.6477 13.4567C10.7965 13.6128 10.9343 13.7713 10.9541 13.8088C10.9996 13.8952 11.0002 14.1714 10.9554 14.3349C10.7777 14.9834 9.98502 15.8822 9.28187 16.2323C9.05373 16.3459 8.99447 16.3612 8.68743 16.386C8.49987 16.4012 8.23379 16.4424 8.09613 16.4776C7.12082 16.7269 6.34321 17.503 6.07387 18.496C5.97572 18.8578 5.97532 19.5479 6.07302 19.9038C6.34624 20.8989 7.10411 21.6565 8.09613 21.9263C8.45476 22.0238 9.14537 22.0238 9.504 21.9263C10.328 21.7022 10.9859 21.1513 11.3518 20.3791C11.4925 20.082 11.5757 19.7448 11.6118 19.3243C11.6359 19.0443 11.6593 18.9421 11.7385 18.7729C12.2041 17.7781 13.5614 16.8114 14.1686 17.0423C14.2156 17.0602 14.3829 17.198 14.5405 17.3487C15.2097 17.9885 15.9756 18.1176 16.778 17.7259C17.0439 17.5961 17.0443 17.5957 19.4332 15.2147C20.7473 13.9048 21.8631 12.7706 21.9126 12.6941C22.0189 12.5301 22.0276 12.3935 21.9423 12.2297C21.8668 12.085 15.8934 6.11621 15.7549 6.04716C15.6238 5.98178 15.4745 5.98597 15.3388 6.05877ZM18.2171 9.79847L20.8607 12.4421L19.8674 13.4354L18.8741 14.4287L16.2227 11.7773L13.5714 9.12598L14.5566 8.14041C15.0985 7.59832 15.549 7.15481 15.5577 7.15481C15.5665 7.15481 16.7632 8.34446 18.2171 9.79847ZM17.3345 15.9685C16.3337 16.9697 16.3031 16.9916 15.902 16.9933C15.5894 16.9946 15.4492 16.923 15.0754 16.571C14.914 16.4191 14.7207 16.2635 14.6458 16.2252C13.8906 15.8391 12.8053 16.1889 11.824 17.1347C11.4016 17.5419 11.126 17.9023 10.9266 18.3083C10.7581 18.6514 10.6787 18.9353 10.6771 19.1999C10.6721 20.0671 10.0339 20.8531 9.19114 21.03C8.55491 21.1636 7.9554 20.9834 7.48524 20.5173C6.89037 19.9276 6.75743 19.0594 7.14791 18.3141C7.28088 18.0603 7.66044 17.6807 7.91423 17.5478C8.15682 17.4207 8.53294 17.3229 8.7816 17.3223C9.80231 17.3198 11.2212 16.1535 11.75 14.8824C11.9813 14.3263 11.9873 13.7718 11.7665 13.3385C11.7328 13.2722 11.5809 13.086 11.429 12.9246C11.0842 12.5584 11.0066 12.4095 11.0061 12.1136C11.0054 11.7046 11.0161 11.6895 12.0183 10.682L12.9134 9.78217L15.5652 12.4338L18.217 15.0855L17.3345 15.9685ZM8.57358 18.7951C8.44149 18.8649 8.33077 19.0494 8.33077 19.1999C8.33077 19.438 8.56201 19.6692 8.80006 19.6692C9.03812 19.6692 9.26935 19.438 9.26935 19.1999C9.26935 19.0447 9.15869 18.8644 9.01988 18.7936C8.86573 18.715 8.72454 18.7154 8.57358 18.7951Z" fill="white"/>
</svg>
